<svg width="28" height="28" viewBox="0 0 28 28" fill="none" xmlns="http://www.w3.org/2000/svg">
<path fill-rule="evenodd" clip-rule="evenodd" d="M18.3248 5.00845C18.5435 5.22724 18.6664 5.52393 18.6664 5.83329C18.6664 6.14265 18.5435 6.43934 18.3248 6.65812L10.983 14L18.3248 21.3418C18.5373 21.5618 18.6549 21.8565 18.6522 22.1624C18.6496 22.4683 18.5269 22.7609 18.3106 22.9772C18.0943 23.1936 17.8017 23.3162 17.4958 23.3189C17.1899 23.3216 16.8952 23.204 16.6751 22.9915L8.50845 14.8248C8.28974 14.606 8.16687 14.3093 8.16687 14C8.16687 13.6906 8.28974 13.3939 8.50845 13.1751L16.6751 5.00845C16.8939 4.78974 17.1906 4.66687 17.5 4.66687C17.8093 4.66687 18.106 4.78974 18.3248 5.00845Z" fill="#B8BFCC"/>
</svg>
