<svg width="28" height="28" viewBox="0 0 28 28" fill="none" xmlns="http://www.w3.org/2000/svg">
<path fill-rule="evenodd" clip-rule="evenodd" d="M18.3249 5.00845C18.5436 5.22724 18.6665 5.52393 18.6665 5.83329C18.6665 6.14265 18.5436 6.43934 18.3249 6.65812L10.9831 14L18.3249 21.3418C18.5374 21.5618 18.655 21.8565 18.6524 22.1624C18.6497 22.4683 18.527 22.7609 18.3107 22.9772C18.0944 23.1936 17.8018 23.3162 17.4959 23.3189C17.19 23.3216 16.8953 23.204 16.6752 22.9915L8.50858 14.8248C8.28986 14.606 8.16699 14.3093 8.16699 14C8.16699 13.6906 8.28986 13.3939 8.50858 13.1751L16.6752 5.00845C16.894 4.78974 17.1907 4.66687 17.5001 4.66687C17.8094 4.66687 18.1061 4.78974 18.3249 5.00845V5.00845Z" fill="currentColor"/>
</svg>
