<svg width="20" height="20" viewBox="0 0 20 20" fill="none" xmlns="http://www.w3.org/2000/svg">
<path d="M13.3333 18.9584H6.66667C3.625 18.9584 1.875 17.2084 1.875 14.1667V5.83335C1.875 2.79169 3.625 1.04169 6.66667 1.04169H13.3333C16.375 1.04169 18.125 2.79169 18.125 5.83335V14.1667C18.125 17.2084 16.375 18.9584 13.3333 18.9584ZM6.66667 2.29169C4.28333 2.29169 3.125 3.45002 3.125 5.83335V14.1667C3.125 16.55 4.28333 17.7084 6.66667 17.7084H13.3333C15.7167 17.7084 16.875 16.55 16.875 14.1667V5.83335C16.875 3.45002 15.7167 2.29169 13.3333 2.29169H6.66667Z" fill="#495771"/>
<path d="M12.0833 3.625C12.1134 3.625 12.1445 3.63744 12.1702 3.66309C12.1958 3.68873 12.2083 3.71985 12.2083 3.75V5.41699C12.2084 6.26799 12.8992 6.95801 13.7502 6.95801H15.4163C15.4463 6.95801 15.4776 6.97067 15.5032 6.99609C15.5287 7.02165 15.5412 7.05296 15.5413 7.08301C15.5413 7.11316 15.5288 7.14428 15.5032 7.16992C15.4775 7.19557 15.4464 7.20801 15.4163 7.20801H13.7502C12.7598 7.20801 11.9584 6.40737 11.9583 5.41699V3.75C11.9583 3.71985 11.9707 3.68873 11.9963 3.66309C12.022 3.63744 12.0531 3.625 12.0833 3.625Z" fill="#495771" stroke="#495771"/>
<path d="M6.66675 10.7083H9.99976C10.0298 10.7083 10.0611 10.7209 10.0867 10.7464C10.1123 10.772 10.1248 10.8032 10.1248 10.8333C10.1248 10.8635 10.1123 10.8946 10.0867 10.9202C10.0611 10.9458 10.0298 10.9583 9.99976 10.9583H6.66675C6.6366 10.9583 6.60548 10.9459 6.57983 10.9202C6.55419 10.8946 6.54175 10.8635 6.54175 10.8333C6.54175 10.8032 6.55419 10.772 6.57983 10.7464C6.60548 10.7208 6.6366 10.7083 6.66675 10.7083Z" fill="#495771" stroke="#495771"/>
<path d="M13.3334 14.7917H6.66675C6.32508 14.7917 6.04175 14.5084 6.04175 14.1667C6.04175 13.825 6.32508 13.5417 6.66675 13.5417H13.3334C13.6751 13.5417 13.9584 13.825 13.9584 14.1667C13.9584 14.5084 13.6751 14.7917 13.3334 14.7917Z" fill="#495771"/>
</svg>
