<svg width="35" height="35" viewBox="0 0 35 35" fill="none" xmlns="http://www.w3.org/2000/svg">
<path fill-rule="evenodd" clip-rule="evenodd" d="M19.8058 3.25991C18.39 2.31612 16.5456 2.31612 15.13 3.25991L3.24868 11.1808C1.29275 12.4847 1.36168 15.3815 3.37742 16.591C4.36884 17.1857 5.55511 17.174 6.53006 16.7192C9.69156 15.2444 13.817 14.4725 17.856 14.4481C21.9071 14.4236 25.7228 15.1518 28.2992 16.5405C29.2858 17.0722 30.5726 17.1822 31.6581 16.5311C33.6274 15.3494 33.6948 12.5193 31.7838 11.2453L19.8058 3.25991Z" fill="currentColor"/>
<path opacity="0.4" fill-rule="evenodd" clip-rule="evenodd" d="M4.73975 17.0357C5.35519 17.093 5.97685 16.9776 6.53039 16.7194C9.69188 15.2446 13.8174 14.4727 17.8563 14.4483C21.9074 14.4238 25.7231 15.1519 28.2996 16.5407C28.8829 16.8551 29.5711 17.022 30.2606 16.9715V25.8929C30.2606 29.5145 27.3213 32.4481 23.6985 32.4481H11.3018C7.67896 32.4481 4.73975 29.5145 4.73975 25.8929V17.0357Z" fill="currentColor"/>
<path fill-rule="evenodd" clip-rule="evenodd" d="M21.1457 32.4479H13.854V28.0729C13.854 26.0594 15.4863 24.4271 17.4998 24.4271C19.5134 24.4271 21.1457 26.0594 21.1457 28.0729V32.4479Z" fill="currentColor"/>
</svg>
