<svg width="257" height="157" viewBox="0 0 257 157" fill="none" xmlns="http://www.w3.org/2000/svg">
<path d="M211.822 15.6564C211.025 15.9103 210.223 16.5212 209.813 17.2577C209.063 18.7784 208.522 20.3569 207.999 21.9671C207.956 22.0967 207.914 22.2263 207.872 22.3558C207.851 22.4195 207.83 22.4832 207.809 22.5489C207.49 23.508 207.124 24.451 206.766 25.3959C206.534 26.0083 206.308 26.6148 206.134 27.2465C206.038 27.5816 205.911 27.9051 205.786 28.2304C205.6 28.7175 205.422 29.2064 205.251 29.6989C204.987 30.4568 204.705 31.2075 204.422 31.9584C204.312 32.2528 204.201 32.5472 204.09 32.8417C204.062 32.9165 204.034 32.9913 204.005 33.0684C203.804 33.6028 203.606 34.1379 203.408 34.6734C203.353 34.8224 203.298 34.9713 203.242 35.1203C203.163 35.334 203.084 35.5478 203.006 35.7617C202.635 36.9571 202.591 37.0969 202.048 37.8942C201.892 38.1232 201.639 38.345 201.391 38.2208C201.24 38.0774 201.24 38.0774 201.266 37.839C201.317 37.3356 201.435 36.8419 201.544 36.3487C201.556 36.2944 201.568 36.2401 201.581 36.1842C201.836 35.0328 202.16 33.9046 202.501 32.7765C202.615 32.4021 202.723 32.0266 202.831 31.6504C202.986 31.1062 203.151 30.566 203.321 30.0262C203.503 29.444 203.673 28.8657 203.809 28.271C203.896 27.9145 204.003 27.5645 204.108 27.2132C204.266 26.6885 204.413 26.1613 204.558 25.6331C204.643 25.3268 204.728 25.0208 204.82 24.7168C206.243 20.0122 206.577 20.1442 205.677 18.041C205.222 17.2432 204.291 16.8054 203.451 16.4859C202.58 16.2602 201.63 16.257 200.834 16.6987C200.15 17.1461 199.654 17.7542 199.32 18.4921C199.296 18.544 199.273 18.5959 199.248 18.6494C198.959 19.2952 198.719 19.9541 198.593 20.6519C198.486 21.2247 198.321 21.7794 198.158 22.3382C198.125 22.4527 198.092 22.5673 198.058 22.6819C197.783 23.6285 197.49 24.5688 197.192 25.5081C197.094 25.8169 197 26.1268 196.907 26.4369C196.714 27.0757 196.517 27.7133 196.32 28.3506C196.173 28.8255 196.028 29.301 195.884 29.7769C195.734 30.2709 195.583 30.7642 195.43 31.257C195.372 31.4418 195.315 31.6265 195.258 31.8113C195.219 31.9357 195.18 32.0601 195.142 32.1845C194.937 32.8415 194.743 33.4933 194.598 34.1665C194.501 34.5806 194.372 34.9843 194.245 35.3895C194.219 35.4723 194.194 35.5551 194.167 35.6404C193.939 36.3736 193.688 37.0845 193.366 37.782C193.336 37.8463 193.307 37.9106 193.276 37.9768C193.214 38.1118 193.151 38.2467 193.089 38.3816C192.994 38.5848 192.902 38.7886 192.809 38.9925C192.18 40.3577 191.359 41.6968 189.926 42.3463C189.402 42.5177 188.927 42.4308 188.424 42.2255C187.363 41.6868 186.878 40.4451 186.467 39.3965C186.389 39.2003 186.307 39.0109 186.216 38.821C186.123 38.6238 186.06 38.4299 186.003 38.22C185.502 36.4354 184.465 34.847 182.862 33.8786C182.598 33.7426 182.33 33.6159 182.061 33.4901C181.991 33.4564 181.921 33.4227 181.849 33.388C180.499 32.7548 179.032 32.5895 177.605 33.0534C176.438 33.5209 175.179 34.4866 174.66 35.6558C174.44 36.2659 174.412 36.8357 174.526 37.4704C174.533 37.5221 174.54 37.5737 174.548 37.627C174.746 38.617 175.76 39.502 176.394 40.2386C177.384 41.3619 177.384 41.3619 178.152 42.6367C178.185 42.6971 178.217 42.7576 178.251 42.8198C178.769 43.7991 179.098 44.833 179.248 45.9267C179.257 45.9912 179.266 46.0558 179.275 46.1223C179.536 48.0714 179.623 50.0324 179.67 51.9964C179.678 52.3104 179.687 52.6243 179.696 52.9383C179.703 53.1793 179.709 53.4203 179.714 53.6615C179.731 54.4708 179.787 55.2765 179.847 56.0838C179.853 56.162 179.858 56.2402 179.864 56.3208C179.882 56.5633 179.9 56.8058 179.919 57.0483C179.924 57.1224 179.93 57.1965 179.936 57.2729C179.995 58.026 180.086 58.7715 180.245 59.5108C180.257 59.5692 180.27 59.6276 180.283 59.6877C180.378 60.1218 180.499 60.5402 180.638 60.9626C180.712 61.1947 180.77 61.4268 180.827 61.6635C181.032 62.4854 181.343 63.2821 181.701 64.0494C181.729 64.1133 181.729 64.1133 181.757 64.1786C182.376 65.587 183.362 66.7318 184.49 67.7575C184.626 67.8822 184.761 68.0087 184.895 68.136C188.28 71.3308 193.628 73.5585 198.306 73.4347C198.463 73.4291 198.62 73.4227 198.777 73.4156C198.931 73.409 199.085 73.4045 199.24 73.4003C199.9 73.379 200.507 73.2851 201.152 73.1336C201.261 73.1122 201.371 73.0911 201.481 73.0704C202.706 72.8124 203.941 72.4227 205.068 71.8761C205.145 71.8394 205.221 71.8027 205.3 71.7649C205.898 71.4703 206.447 71.1246 206.993 70.7433C207.143 70.6395 207.297 70.5414 207.451 70.4424C207.836 70.1823 208.188 69.8844 208.539 69.5813C208.679 69.4614 208.82 69.3431 208.961 69.2248C210.328 68.0637 211.579 66.7517 212.631 65.2992C212.682 65.2287 212.734 65.1581 212.787 65.0855C213.461 64.1632 214.125 63.2343 214.741 62.2722C214.777 62.2175 214.812 62.1629 214.848 62.1066C215.296 61.4084 215.728 60.7027 216.139 59.9821C216.347 59.6191 216.56 59.2606 216.779 58.9044C218.598 55.9392 220.177 52.8506 221.746 49.749C221.818 49.6067 221.89 49.4646 221.962 49.3224C222.563 48.1356 223.155 46.9448 223.737 45.7483C223.856 45.5035 223.975 45.2588 224.094 45.0142C224.476 44.2312 224.854 43.4468 225.225 42.6591C225.257 42.592 225.289 42.5249 225.322 42.4558C225.818 41.3975 226.211 40.3151 226.168 39.1337C226.164 39.0378 226.164 39.0378 226.161 38.9399C226.119 38.4158 225.929 37.9319 225.536 37.5684C224.834 37.0289 223.968 36.6726 223.072 36.7377C221.792 36.9375 221.02 37.7365 220.27 38.7359C219.281 40.1086 218.539 41.6555 217.775 43.1587C217.322 44.0489 216.862 44.9318 216.359 45.7951C216.335 45.8363 216.311 45.8776 216.286 45.9201C215.822 46.7778 215.795 46.8286 215.174 47.4065C215.094 47.4803 214.974 47.5257 214.868 47.502C214.758 47.4772 214.71 47.3602 214.73 47.2484C214.78 46.9644 214.857 46.703 214.972 46.4275C214.992 46.3778 215.013 46.328 215.034 46.2768C215.315 45.5971 215.621 44.928 215.924 44.2577C216.608 42.743 217.278 41.2225 217.935 39.6961C217.994 39.558 218.054 39.4198 218.114 39.2817C218.804 37.6807 218.804 37.6807 219.107 36.9273C219.333 36.366 219.571 35.8101 219.811 35.2547C219.83 35.2096 219.85 35.1644 219.87 35.1179C220.031 34.7437 220.193 34.3697 220.355 33.9957C221.591 31.1422 221.591 31.1422 221.833 30.2542C221.901 30.0284 221.986 29.8153 222.075 29.5973C222.28 29.0734 222.382 28.5442 222.468 27.9911C222.475 27.944 222.483 27.8968 222.491 27.8483C222.591 27.2085 222.6 26.6261 222.474 25.9878C222.462 25.9137 222.462 25.9137 222.45 25.8381C222.333 25.2424 221.913 24.7574 221.426 24.4181C220.608 23.9259 219.86 23.6995 218.906 23.8776C217.526 24.2439 216.641 25.3892 215.935 26.5606C215.697 26.9996 215.488 27.4531 215.28 27.9072C215.186 28.1115 215.091 28.3149 214.996 28.5183C214.693 29.1675 214.421 29.8088 214.214 30.4944C214.088 30.9025 213.925 31.2959 213.766 31.692C213.693 31.8734 213.622 32.0549 213.55 32.2365C213.522 32.307 213.522 32.307 213.493 32.3789C213.265 32.9581 213.046 33.5408 212.828 34.1239C212.808 34.1776 212.788 34.2313 212.767 34.2867C212.553 34.8603 212.342 35.4344 212.148 36.0152C211.758 37.1695 211.248 38.2744 210.74 39.3803C210.679 39.5111 210.62 39.6421 210.56 39.7732C210.122 40.8836 210.104 40.9295 209.337 41.6449C209.27 41.7079 209.174 41.7625 209.082 41.7656C208.723 41.7776 208.58 41.3153 208.657 40.9639C208.903 39.8295 209.319 38.7357 209.712 37.6459C210.076 36.6351 210.43 35.6225 210.761 34.6005C211.016 33.8144 211.294 33.0397 211.602 32.2732C211.623 32.2224 211.643 32.1716 211.664 32.1193C211.767 31.8652 211.87 31.6114 211.974 31.358C212.196 30.8145 212.391 30.2704 212.567 29.7098C212.74 29.171 212.952 28.6454 213.156 28.1178C213.639 26.8645 213.639 26.8645 213.833 26.2489C213.993 25.7425 214.177 25.2492 214.373 24.7555C214.407 24.6671 214.442 24.5787 214.477 24.4904C214.661 24.0218 214.852 23.5573 215.053 23.0955C215.345 22.4218 215.594 21.7403 215.817 21.0412C215.844 20.9585 215.871 20.8758 215.898 20.7905C216.224 19.7398 216.387 18.4958 215.93 17.4526C215.116 15.9818 213.452 15.2236 211.822 15.6564Z" fill="#1A96FE"/>
<path d="M203.881 152.488L178.091 150.583L183.736 74.1797L209.526 76.085L203.881 152.488ZM181.743 147.434L181.744 147.434L186.886 77.8319L205.873 79.2347L205.874 79.2337L186.885 77.8309L181.743 147.434ZM198.677 47.8662C202.56 48.1533 206.043 49.2796 208.462 51.7961C210.945 54.3804 211.75 57.8399 211.475 61.5564C211.205 65.2101 209.856 68.4071 207.112 70.6591L207.11 70.6599C204.354 72.9191 200.713 73.5713 196.799 73.2823C192.911 72.9951 189.423 71.8604 187.005 69.3283C184.527 66.732 183.73 63.2577 184.005 59.527C184.28 55.8106 185.582 52.5067 188.419 50.3154C191.181 48.1815 194.793 47.5793 198.677 47.8662ZM188.924 66.3248C189.264 66.7812 189.659 67.1938 190.109 67.564C189.659 67.1938 189.264 66.7812 188.924 66.3248ZM187.856 57.1245C187.627 57.9273 187.477 58.8118 187.405 59.7782L187.373 60.3555C187.359 60.7256 187.359 61.0849 187.373 61.4336C187.353 60.9067 187.364 60.355 187.406 59.7792C187.477 58.8129 187.627 57.9283 187.856 57.1254L187.856 57.1245ZM189.017 54.5878C188.683 55.0733 188.401 55.6115 188.168 56.2016C188.459 55.4641 188.828 54.8081 189.277 54.234L189.017 54.5878ZM191.23 52.5197C190.848 52.7465 190.495 53.0037 190.169 53.2893C190.495 53.0037 190.848 52.7465 191.23 52.5197ZM197.789 51.2289C195.908 51.1446 194.282 51.3254 192.91 51.7703C194.282 51.3253 195.908 51.1447 197.789 51.2289ZM198.435 51.2669C199.075 51.3144 199.682 51.3864 200.258 51.4828C199.873 51.4183 199.473 51.3644 199.059 51.3218L198.435 51.2669Z" fill="#1A96FE"/>
<path d="M29.079 73.2563C29.2826 74.5834 29.5913 77.2889 30.0114 81.3086C34.0121 77.1146 39.5007 74.5242 46.2552 73.4876C54.952 72.1533 62.4683 73.4055 68.2938 77.8555C74.0734 82.2707 77.4306 89.1343 78.7669 97.842L86.1866 146.193L60.6274 150.115L53.9272 106.453C53.2126 101.796 51.8864 99.0509 50.4062 97.589C49.0937 96.2933 47.2851 95.6377 44.4163 96.0778C39.9877 96.7573 37.614 98.598 36.4087 101.242C35.0395 104.245 34.6251 109.397 35.8302 117.251L41.3279 153.077L15.7677 156.999L0 54.2478L25.5602 50.3255L29.079 73.2563ZM43.8971 92.7073C38.6317 93.5154 35.1002 95.8884 33.3046 99.827C31.5091 103.766 31.2275 109.746 32.4584 117.767L37.4391 150.224L37.4411 150.224L32.4605 117.768C31.2296 109.747 31.5112 103.766 33.3067 99.8277C35.1023 95.8891 38.6337 93.516 43.8992 92.708L44.5546 92.6203C44.3381 92.6444 44.1189 92.6733 43.8971 92.7073ZM73.6991 91.3885C74.4396 93.4966 75.0054 95.8194 75.3949 98.3575L82.2978 143.341L82.2997 143.34L75.3971 98.3591C75.0075 95.8203 74.4399 93.4972 73.6991 91.3885ZM73.211 90.0941C73.139 89.9156 73.066 89.7387 72.9913 89.5636C73.066 89.7387 73.139 89.9156 73.211 90.0941ZM72.9464 89.4579C72.8795 89.303 72.8113 89.1495 72.7423 88.9972C72.8113 89.1495 72.8795 89.303 72.9464 89.4579ZM72.4255 88.3236C72.3496 88.1677 72.2727 88.0131 72.1944 87.8601C72.2727 88.0131 72.3496 88.1677 72.4255 88.3236ZM72.1242 87.7247C72.059 87.5993 71.9925 87.4754 71.9257 87.352C71.9925 87.4754 72.059 87.5993 72.1242 87.7247ZM71.8295 87.1761C71.7578 87.0462 71.6857 86.9172 71.6122 86.7896C71.6857 86.9172 71.7579 87.0462 71.8295 87.1761ZM71.5385 86.6635C71.457 86.5241 71.3748 86.3858 71.2911 86.249C71.3748 86.3858 71.457 86.5241 71.5385 86.6635ZM71.2331 86.1542C71.1483 86.0171 71.062 85.8816 70.975 85.7472C71.062 85.8816 71.1483 86.0171 71.2331 86.1542ZM70.9089 85.6447C70.8195 85.5083 70.729 85.3733 70.6373 85.2398C70.729 85.3733 70.8195 85.5083 70.9089 85.6447ZM70.2293 84.6671C70.1446 84.552 70.0588 84.4381 69.9723 84.3252C70.0588 84.4381 70.1446 84.552 70.2293 84.6671ZM69.8672 84.1872C69.7755 84.0696 69.6821 83.9539 69.5884 83.8387C69.6821 83.9538 69.7755 84.0696 69.8672 84.1872ZM66.3769 80.6869C67.5251 81.5823 68.5716 82.6021 69.5153 83.7482C68.6533 82.7015 67.7072 81.7584 66.6746 80.9208L66.3769 80.6869ZM26.1983 77.7264C26.3985 79.5108 26.6399 81.7941 26.9224 84.5757L27.3431 90.1951L27.345 90.1948L26.9244 84.5763C26.6419 81.7944 26.3986 79.5111 26.1983 77.7264ZM65.5105 80.0502C65.4437 80.0039 65.3777 79.9564 65.3103 79.9109C65.3777 79.9564 65.4437 80.0039 65.5105 80.0502ZM64.5122 79.4031C64.4641 79.3741 64.4166 79.3441 64.3683 79.3155C64.4166 79.3441 64.4641 79.3741 64.5122 79.4031ZM63.9816 79.0942C63.9515 79.0774 63.922 79.0595 63.8917 79.0428C63.922 79.0595 63.9515 79.0774 63.9816 79.0942ZM63.484 78.8258C63.4547 78.8105 63.4261 78.794 63.3968 78.7789C63.4261 78.794 63.4547 78.8105 63.484 78.8258ZM63.0362 78.5991C62.9821 78.5726 62.9283 78.5453 62.8738 78.5193C62.9283 78.5453 62.9821 78.5726 63.0362 78.5991ZM62.5739 78.3806C62.4963 78.3451 62.4186 78.3096 62.3404 78.2751C62.4186 78.3096 62.4963 78.3451 62.5739 78.3806ZM62.0686 78.1587C61.9861 78.1238 61.9036 78.0885 61.8204 78.0546C61.9036 78.0885 61.9861 78.1238 62.0686 78.1587ZM61.5311 77.9399C61.4474 77.9073 61.3636 77.8748 61.2792 77.8432C61.3636 77.8748 61.4474 77.9073 61.5311 77.9399ZM60.9789 77.7342C60.9031 77.7072 60.8274 77.6797 60.7511 77.6535C60.8274 77.6797 60.9031 77.7072 60.9789 77.7342ZM60.4347 77.5489C60.3463 77.5201 60.2578 77.491 60.1687 77.4633C60.2578 77.491 60.3463 77.5201 60.4347 77.5489ZM59.9148 77.3867C59.8125 77.3562 59.7099 77.3257 59.6066 77.2966C59.7099 77.3257 59.8125 77.3562 59.9148 77.3867ZM59.3036 77.2147C59.2228 77.1932 59.1419 77.1718 59.0606 77.1512C59.1419 77.1718 59.2228 77.1932 59.3036 77.2147ZM58.7444 77.0733C58.6461 77.0498 58.5474 77.0273 58.4484 77.0051C58.5474 77.0273 58.6461 77.0498 58.7444 77.0733ZM58.1429 76.9393C58.0601 76.9219 57.9772 76.9042 57.8939 76.8876C57.9772 76.9042 58.0601 76.9219 58.1429 76.9393ZM57.559 76.8234C57.4585 76.8049 57.3576 76.7874 57.2564 76.7701C57.3576 76.7874 57.4585 76.8049 57.559 76.8234ZM56.9613 76.7205C56.8652 76.7053 56.7687 76.6911 56.672 76.677C56.7687 76.6911 56.8652 76.7053 56.9613 76.7205ZM56.2975 76.6248C56.2325 76.6162 56.1673 76.6085 56.1021 76.6004C56.1673 76.6085 56.2325 76.6162 56.2975 76.6248ZM55.7197 76.5553C55.6094 76.5433 55.4986 76.5321 55.3875 76.5214C55.4986 76.5321 55.6094 76.5433 55.7197 76.5553ZM55.0888 76.4941C54.9726 76.4842 54.856 76.4753 54.7389 76.4668C54.856 76.4753 54.9726 76.4842 55.0888 76.4941ZM54.4763 76.4488C54.3486 76.4407 54.2204 76.4342 54.0917 76.4278C54.2204 76.4342 54.3486 76.4407 54.4763 76.4488ZM53.7772 76.4128C53.6916 76.4094 53.6059 76.4065 53.5199 76.4039C53.6059 76.4065 53.6916 76.4094 53.7772 76.4128ZM53.1331 76.3941C52.9978 76.3916 52.8619 76.3911 52.7255 76.3904C52.8619 76.3911 52.9978 76.3916 53.1331 76.3941ZM52.4911 76.3888C52.3522 76.3891 52.2128 76.3907 52.0728 76.3928C52.2128 76.3907 52.3522 76.3891 52.4911 76.3888ZM51.7967 76.3966C51.6638 76.3997 51.5305 76.4049 51.3966 76.4096C51.5305 76.4049 51.6638 76.3997 51.7967 76.3966ZM51.1057 76.4196C50.9632 76.4258 50.8202 76.4351 50.6765 76.443C50.8202 76.4351 50.9632 76.4258 51.1057 76.4196ZM50.4081 76.4575C50.2636 76.4666 50.1188 76.4778 49.9732 76.4887C50.1188 76.4778 50.2636 76.4666 50.4081 76.4575ZM47.5181 76.7469C48.2622 76.6456 48.9923 76.5661 49.7083 76.5076C48.9949 76.5658 48.2672 76.6458 47.526 76.7467L47.5181 76.7469ZM25.8895 75.1151C25.9723 75.7701 26.0678 76.5729 26.1751 77.5234C26.078 76.6628 25.9927 75.923 25.9156 75.3047L25.8895 75.1151ZM25.7072 73.7727C25.7186 73.847 25.7285 73.9264 25.7408 74.0106L25.7093 73.7734L22.7075 54.2123L22.7056 54.2126L25.7072 73.7727ZM73.6867 91.3529C73.6233 91.1732 73.559 90.995 73.4931 90.8185C73.559 90.995 73.6234 91.1732 73.6867 91.3529ZM73.4221 90.6327C73.3584 90.4655 73.2942 90.2994 73.2281 90.1349C73.2941 90.2994 73.3584 90.4655 73.4221 90.6327ZM72.6875 88.8782C72.6083 88.7057 72.5278 88.5349 72.4459 88.3659C72.5278 88.5349 72.6083 88.7057 72.6875 88.8782ZM45.7984 92.5361C45.6348 92.5397 45.4695 92.546 45.3025 92.5559C45.4695 92.546 45.6348 92.5397 45.7984 92.5361ZM70.5788 85.1549C70.4827 85.0163 70.3843 84.8799 70.2856 84.7445C70.3843 84.8799 70.4827 85.0163 70.5788 85.1549Z" fill="#1A96FE"/>
<path d="M143.666 123.263C144.092 120.962 144.603 117.68 145.2 113.419C145.882 109.157 146.479 104.341 146.99 98.9716C147.587 93.6019 148.013 88.0191 148.268 82.2233C148.609 76.3422 148.652 70.6742 148.396 65.2193C148.226 59.6791 147.714 54.693 146.862 50.2609C146.01 45.8287 144.646 42.3342 142.771 39.7772C140.981 37.135 138.637 35.8138 135.739 35.8138C132.586 35.8138 129.943 37.1776 127.812 39.905C125.682 42.6325 123.934 46.3401 122.571 51.028C121.292 55.6305 120.355 60.8724 119.758 66.7535C119.161 72.6346 118.82 78.7713 118.735 85.1638C118.735 91.4711 118.906 97.6931 119.247 103.83C119.587 109.967 120.056 115.549 120.653 120.578L90.9917 123.519C90.0542 109.2 90.1394 96.0311 91.2474 84.0132C92.3555 71.9101 94.6142 61.4264 98.0235 52.5622C101.518 43.6979 106.334 36.8366 112.47 31.9783C118.607 27.1201 126.236 24.6909 135.356 24.6909C143.794 24.6909 150.698 27.1627 156.067 32.1062C161.437 36.9645 165.443 43.7831 168.085 52.5622C170.813 61.3412 172.304 71.5691 172.56 83.2461C172.901 94.8378 172.134 107.367 170.259 120.834L143.666 123.263ZM99.6855 100.761L104.544 85.8031C109.743 87.593 114.985 88.8289 120.269 89.5107C125.554 90.1074 130.71 90.3204 135.739 90.15C140.853 89.9795 145.711 89.6386 150.314 89.1272C154.917 88.6158 159.136 88.0618 162.971 87.4651L164.25 97.1817C158.624 99.3978 152.274 100.932 145.2 101.784C138.126 102.637 130.71 102.935 122.954 102.679C115.198 102.338 107.442 101.699 99.6855 100.761Z" fill="#1A96FE"/>
<path d="M219.022 5.22388C228.912 8.60019 236.398 16.786 238.879 26.9367L239.432 29.1974L234.464 30.4126L233.912 28.1519C231.845 19.6959 225.609 12.8776 217.371 10.0649L219.022 5.22388Z" fill="#1A96FE"/>
<path d="M237.028 0.413563C245.569 6.20404 250.626 15.9011 250.487 26.2188L250.429 30.5106L245.315 30.4405L245.372 26.1502C245.488 17.5525 241.274 9.47286 234.157 4.64766L237.028 0.413563Z" fill="#1A96FE"/>
</svg>
