<svg xmlns="http://www.w3.org/2000/svg" width="50" height="49" viewBox="0 0 50 49" fill="none">
  <path d="M0.88444 17.622C-1.32509 26.3062 0.609724 33.9671 6.63918 40.396C6.79606 40.5621 6.95615 40.7279 7.11599 40.8868C10.355 44.1255 14.3892 46.1255 17.5857 47.5171C18.9576 48.116 25.9973 48.8438 27.902 48.5601C39.2215 46.8697 46.6704 40.4855 49.2648 29.8045C49.7603 27.7122 50.0068 25.5689 49.9999 23.4188C50.0118 18.3539 47.8795 12.4655 43.4814 8.05545C43.0285 7.68128 42.5774 7.29323 42.1409 6.9176C41.1949 6.10396 40.2169 5.26199 39.1937 4.54354C31.3773 -0.957654 23.2559 -0.988601 15.0562 1.9289C7.63232 4.56873 2.86452 9.84941 0.88444 17.622ZM15.088 4.52942C22.2824 1.53955 29.5011 1.01193 36.5419 5.48988C37.8292 6.30951 41.2611 9.08359 41.8017 9.5L41.8364 9.52585L41.8648 9.55743C44.6118 12.4702 47.7572 17.7962 47.6875 23.2711C47.6648 25.6122 47.3477 27.9411 46.7441 30.2032C44.956 36.7034 40.6802 41.4409 33.6729 44.6815C26.5491 48.0924 16.333 44.644 13.6148 42.8496C10.6105 40.7957 7.98179 38.2404 5.84351 35.2954C2.48993 30.5473 1.73734 23.7226 3.5394 17.4833C4.38279 14.6026 5.85665 11.9456 7.8541 9.70511C9.85158 7.4646 12.3226 5.69662 15.088 4.52942Z" fill="#0183F0"/>
  <path d="M15.088 4.52942C22.2824 1.53955 29.5011 1.01193 36.5419 5.48988C37.8292 6.30951 41.2611 9.08359 41.8017 9.5L41.8364 9.52585L41.8648 9.55743C44.6118 12.4702 47.7572 17.7962 47.6875 23.2711C47.6648 25.6122 47.3477 27.9411 46.7441 30.2032C44.956 36.7034 40.6802 41.4409 33.6729 44.6815C26.5491 48.0924 16.333 44.644 13.6148 42.8496C10.6105 40.7957 7.98179 38.2404 5.84351 35.2954C2.48993 30.5473 1.73734 23.7226 3.5394 17.4833C4.38279 14.6026 5.85665 11.9456 7.8541 9.70511C9.85158 7.4646 12.3226 5.69662 15.088 4.52942Z" fill="#0183F0"/>
  <path d="M25.5647 40.1852C23.006 40.2397 20.5305 39.8321 18.2412 38.6526C14.6202 36.7873 12.5966 33.8779 12.6438 29.7107C12.6619 28.1169 13.2627 27.5743 14.8667 27.5201C18.769 27.3882 22.6771 27.3359 26.5709 27.0762C28.9992 26.9142 31.4177 26.498 33.8192 26.0749C35.8176 25.723 37.5206 27.1285 37.3432 29.2339C37.1169 32.4201 35.7265 35.412 33.4372 37.6399C31.6727 39.3842 29.4634 40.0411 27.0571 40.1814C26.5609 40.2091 26.0621 40.1852 25.5647 40.1852ZM16.9335 35.1507C22.0067 31.2235 27.1785 30.237 32.7623 33.97C33.7338 32.4951 34.2602 30.7715 34.2788 29.0055C34.2863 28.3809 34.0036 28.0785 33.3432 28.2245C32.8928 28.3241 32.4395 28.4095 31.9834 28.4806C26.4433 29.3615 20.859 29.1406 15.2838 29.141C14.5209 29.141 14.1833 29.4038 14.3019 30.1015C14.6332 32.068 15.3213 33.8631 16.9335 35.1507ZM30.896 36.1133C28.1343 33.3771 21.6317 33.622 19.1039 36.5118C22.149 38.3415 29.2538 38.1524 30.896 36.1133Z" fill="white"/>
  <path d="M18.293 18.882L15.749 16.4891C14.6129 15.4208 14.6604 15.5303 13.5245 14.4614C13.0287 13.9957 12.6281 13.4875 13.1393 12.8113C13.5021 12.3291 14.2048 12.454 14.9033 13.0839C17.1419 15.1015 18.1984 15.9387 20.4304 17.9636C21.378 18.8235 21.3962 19.8269 20.5001 20.7331C20.3555 20.8898 20.1904 21.0262 20.0092 21.1387C17.4053 22.6172 14.6336 23.2748 11.6409 22.8263C11.503 22.7933 11.3668 22.7532 11.233 22.7062C10.6523 22.5553 10.2896 22.2046 10.2916 21.5852C10.2769 21.3135 10.3689 21.0468 10.5479 20.8419C10.7269 20.6369 10.9789 20.51 11.2501 20.4881C12.6138 20.2717 13.9911 20.1378 15.3499 19.8973C16.3125 19.7265 17.2542 19.4367 18.205 19.2L18.293 18.882Z" fill="white"/>
  <path d="M33.1024 19.7991C34.6907 19.9029 36.1315 19.9863 37.5701 20.0958C38.2421 20.1363 38.9107 20.218 39.5723 20.3404C40.0917 20.4452 40.5708 20.7886 40.4262 21.3634C40.3338 21.7301 39.8478 22.1047 38.6229 22.3331C38.3562 22.383 34.0565 22.3809 31.3984 21.7216C30.3724 21.4672 30.2032 20.2858 31.0225 19.3738C32.3721 17.8718 32.054 17.9437 33.5125 16.5474C34.4316 15.6674 35.4973 14.9393 36.5019 14.1491C36.6963 13.9961 36.9012 13.7816 37.1206 13.7533C37.4535 13.7105 38.5217 14.0563 37.8982 14.76C36.9665 15.6319 33.3391 19.4098 33.1024 19.7991Z" fill="white"/>
</svg>