<svg width="200" height="250" viewBox="0 0 200 250" fill="none" xmlns="http://www.w3.org/2000/svg">
<mask id="path-1-inside-1_87_1577" fill="white">
<path d="M96.4546 3.41779C98.9697 5.74652 100.884 9.41212 101.129 12.864C101.277 19.8243 100.549 26.6354 99.7019 33.5349C99.6341 34.0903 99.5664 34.6457 99.499 35.2011C99.4656 35.4742 99.4322 35.7472 99.3978 36.0285C98.9188 40.15 98.6434 44.2942 98.3351 48.4312C98.1324 51.111 97.9235 53.7616 97.4723 56.4123C97.2498 57.8264 97.159 59.2501 97.059 60.6772C96.9052 62.812 96.7198 64.9407 96.5006 67.0697C96.1654 70.3469 95.9107 73.6291 95.6596 76.9136C95.5605 78.2013 95.461 79.4889 95.3614 80.7765C95.3361 81.1037 95.3108 81.4309 95.2848 81.7681C95.1036 84.1046 94.9137 86.4404 94.72 88.7759C94.6665 89.4258 94.613 90.0758 94.5595 90.7257C94.4828 91.6582 94.4056 92.5907 94.3266 93.5231C93.6317 98.616 93.5506 99.2097 94.1862 103.124C94.3682 104.245 94.9197 105.507 96.0543 105.475C96.8643 105.205 96.8643 105.205 97.179 104.272C97.8603 102.311 98.2792 100.27 98.7275 98.2453C98.7773 98.0226 98.827 97.7999 98.8782 97.5704C99.9263 92.8444 100.678 88.0844 101.365 83.2944C101.593 81.7051 101.841 80.1193 102.095 78.5339C102.461 76.2397 102.783 73.9424 103.087 71.639C103.422 69.1577 103.793 66.711 104.318 64.2631C104.614 62.7858 104.824 61.2986 105.041 59.8081C105.366 57.583 105.733 55.3659 106.109 53.1488C106.326 51.8626 106.541 50.5772 106.726 49.2858C109.597 29.3137 108.127 29.2228 115.109 22.9643C118.174 20.7858 122.384 20.775 126.051 21.0458C129.673 21.7202 133.199 23.3583 135.385 26.3843C137.148 29.2376 137.933 32.3607 137.892 35.6855C137.891 35.92 137.889 36.1544 137.887 36.396C137.841 39.3004 137.59 42.1686 136.847 44.9823C136.253 47.2993 135.905 49.6497 135.542 52.0117C135.467 52.4955 135.391 52.9794 135.316 53.4632C134.696 57.4621 134.154 61.4688 133.636 65.4819C133.462 66.8003 133.275 68.1164 133.084 69.4323C132.692 72.1432 132.317 74.8563 131.946 77.5702C131.668 79.5924 131.383 81.6132 131.093 83.6336C130.792 85.7309 130.499 87.8291 130.214 89.9286C130.106 90.7153 129.998 91.502 129.891 92.2887C129.819 92.8187 129.747 93.3487 129.676 93.8787C129.298 96.679 128.886 99.4392 128.261 102.197C127.9 103.904 127.68 105.63 127.451 107.359C127.402 107.712 127.354 108.064 127.304 108.427C126.881 111.552 126.581 114.632 126.567 117.786C126.566 118.077 126.564 118.367 126.562 118.666C126.56 119.277 126.558 119.888 126.557 120.498C126.554 121.418 126.545 122.337 126.536 123.257C126.504 129.428 127.227 135.834 131.416 140.74C133.064 142.289 134.973 142.79 137.193 142.9C142.06 142.74 146.008 138.964 149.349 135.778C149.977 135.183 150.608 134.621 151.276 134.073C151.96 133.5 152.53 132.889 153.106 132.207C158.053 126.439 164.649 122.333 172.267 121.515C173.481 121.467 174.694 121.461 175.909 121.461C176.227 121.457 176.545 121.454 176.873 121.45C182.973 121.439 188.7 123.374 193.186 127.579C196.701 131.344 199.698 137.124 199.598 142.375C199.357 145.027 198.475 147.196 196.954 149.359C196.837 149.538 196.721 149.718 196.6 149.903C194.151 153.241 188.859 154.771 185.234 156.41C179.618 158.868 179.618 158.868 174.564 162.276C174.339 162.445 174.114 162.613 173.882 162.786C170.264 165.528 167.253 168.802 164.804 172.61C164.659 172.835 164.514 173.06 164.365 173.291C160.024 180.089 156.305 187.232 152.73 194.456C152.158 195.611 151.58 196.762 151.003 197.914C150.56 198.799 150.119 199.685 149.684 200.573C148.218 203.554 146.616 206.454 144.997 209.353C144.84 209.634 144.684 209.915 144.522 210.204C144.036 211.076 143.548 211.946 143.059 212.816C142.911 213.082 142.762 213.348 142.608 213.622C141.086 216.321 139.457 218.936 137.587 221.409C137.44 221.605 137.293 221.801 137.141 222.002C136.037 223.452 134.863 224.798 133.616 226.127C132.942 226.862 132.322 227.624 131.703 228.406C129.52 231.108 126.986 233.53 124.329 235.762C124.116 235.952 124.116 235.952 123.898 236.145C119.166 240.31 113.527 242.855 107.571 244.711C106.849 244.938 106.131 245.175 105.414 245.415C87.3322 251.418 63.6475 250.414 46.5196 241.826C45.9471 241.532 45.3764 241.236 44.8067 240.937C44.2459 240.644 43.6817 240.359 43.1165 240.076C40.7049 238.849 38.6173 237.445 36.4907 235.762C36.1207 235.492 35.75 235.223 35.3784 234.955C31.2824 231.866 27.3788 228.271 24.1474 224.28C23.9276 224.01 23.7078 223.741 23.4813 223.464C21.7723 221.328 20.3382 219.089 18.9734 216.722C18.5954 216.075 18.1944 215.442 17.7963 214.807C16.8193 213.171 16.0303 211.451 15.2532 209.713C14.943 209.025 14.6248 208.34 14.3068 207.654C11.2507 200.961 8.88142 193.906 7.49827 186.676C7.42921 186.324 7.36016 185.972 7.28901 185.609C6.38637 181.007 5.53478 176.399 4.91479 171.749C4.87899 171.485 4.84318 171.22 4.8063 170.948C4.35318 167.572 3.97575 164.197 3.69908 160.802C3.55795 159.091 3.38685 157.387 3.19134 155.681C1.58281 141.491 1.0765 127.258 0.629891 112.995C0.609356 112.341 0.588555 111.687 0.567693 111.033C0.394187 105.574 0.261517 100.116 0.177628 94.6547C0.160343 93.5374 0.141678 92.4201 0.122895 91.3027C0.0646633 87.7277 0.0203275 84.1525 0.00683991 80.5769C0.00460672 80.2718 0.00236915 79.9666 6.82911e-05 79.6522C-0.0061665 74.8541 0.411194 70.145 2.61836 65.8262C2.79653 65.4748 2.79653 65.4748 2.97829 65.1164C4.04109 63.2398 5.58302 61.7697 7.66871 61.0999C11.2061 60.3132 15.0357 60.4931 18.2448 62.2918C22.6444 65.259 24.123 69.5726 25.1711 74.592C26.462 81.4172 26.533 88.4597 26.764 95.3797C26.9018 99.478 27.0793 103.562 27.4485 107.646C27.4657 107.841 27.4829 108.037 27.5006 108.238C27.736 112.235 27.7499 112.471 29.0531 115.702C29.219 116.113 29.5856 116.49 30.0184 116.585C30.4722 116.686 30.8497 116.333 30.9707 115.884C31.279 114.741 31.4438 113.633 31.4953 112.408C31.506 112.188 31.5167 111.968 31.5277 111.741C31.6609 108.724 31.6845 105.703 31.7223 102.683C31.8096 95.8604 31.96 89.041 32.166 82.2211C32.1847 81.6038 32.203 80.9865 32.2213 80.3691C32.4344 73.2143 32.4344 73.2143 32.6155 69.8853C32.7502 67.405 32.8298 64.9237 32.9025 62.441C32.9084 62.2392 32.9144 62.0374 32.9205 61.8295C32.9693 60.157 33.0168 58.4843 33.064 56.8117C33.4241 44.0507 33.4241 44.0507 34.062 40.3255C34.2014 39.368 34.2561 38.428 34.3019 37.4617C34.4501 35.1571 34.9892 33.0117 35.6295 30.8056C35.6829 30.617 35.7362 30.4284 35.7911 30.234C36.5252 27.6792 37.5015 25.4978 39.0742 23.3422C39.2457 23.0869 39.2457 23.0869 39.4207 22.8264C40.888 20.8147 43.2857 19.7405 45.6764 19.3235C49.5619 18.9139 52.7285 19.372 55.9565 21.6917C60.4374 25.4514 61.7355 31.2496 62.3255 36.8338C62.4489 38.881 62.4382 40.9306 62.422 42.9807C62.4152 43.9033 62.4161 44.8256 62.418 45.7481C62.4139 48.6877 62.3134 51.5465 61.8928 54.4563C61.6556 56.1944 61.5766 57.9398 61.4823 59.6904C61.4362 60.4907 61.3883 61.2909 61.3399 62.0911C61.3211 62.4018 61.3211 62.4018 61.302 62.7188C61.145 65.2697 60.9483 67.8175 60.7467 70.3652C60.7282 70.6 60.7097 70.8348 60.6906 71.0768C60.4919 73.5828 60.279 76.0843 59.9932 78.5821C59.4428 83.5546 59.4173 88.5495 59.3889 93.5473C59.3852 94.1383 59.38 94.7293 59.3735 95.3204C59.0762 100.214 59.064 100.415 60.6676 104.41C60.8082 104.76 61.0664 105.128 61.4024 105.299C62.7134 105.969 64.0428 104.498 64.368 103.063C65.4208 98.4135 65.7713 93.6195 66.2008 88.8802C66.602 84.4882 67.044 80.1071 67.5866 75.7301C68.003 72.3632 68.3133 68.9985 68.4961 65.6109C68.5082 65.3864 68.5203 65.1618 68.5328 64.9305C68.5926 63.8073 68.6496 62.684 68.7025 61.5604C68.8204 59.153 69.0383 56.7898 69.3572 54.3988C69.6492 52.0946 69.7734 49.7711 69.9324 47.4547C70.3102 41.9526 70.3102 41.9526 70.6579 39.3264C70.9427 37.1649 71.1115 35.0087 71.2421 32.8329C71.2668 32.4441 71.2915 32.0552 71.3163 31.6663C71.4449 29.6035 71.5384 27.5423 71.5945 25.4762C71.6799 22.4635 71.9338 19.4942 72.3186 16.5068C72.3626 16.1526 72.4066 15.7985 72.4519 15.4336C73.0652 10.9599 74.6117 6.04753 78.1135 2.96142C83.679 -1.09467 91.1621 -1.02354 96.4546 3.41779Z"/>
</mask>
<path d="M96.4546 3.41779C98.9697 5.74652 100.884 9.41212 101.129 12.864C101.277 19.8243 100.549 26.6354 99.7019 33.5349C99.6341 34.0903 99.5664 34.6457 99.499 35.2011C99.4656 35.4742 99.4322 35.7472 99.3978 36.0285C98.9188 40.15 98.6434 44.2942 98.3351 48.4312C98.1324 51.111 97.9235 53.7616 97.4723 56.4123C97.2498 57.8264 97.159 59.2501 97.059 60.6772C96.9052 62.812 96.7198 64.9407 96.5006 67.0697C96.1654 70.3469 95.9107 73.6291 95.6596 76.9136C95.5605 78.2013 95.461 79.4889 95.3614 80.7765C95.3361 81.1037 95.3108 81.4309 95.2848 81.7681C95.1036 84.1046 94.9137 86.4404 94.72 88.7759C94.6665 89.4258 94.613 90.0758 94.5595 90.7257C94.4828 91.6582 94.4056 92.5907 94.3266 93.5231C93.6317 98.616 93.5506 99.2097 94.1862 103.124C94.3682 104.245 94.9197 105.507 96.0543 105.475C96.8643 105.205 96.8643 105.205 97.179 104.272C97.8603 102.311 98.2792 100.27 98.7275 98.2453C98.7773 98.0226 98.827 97.7999 98.8782 97.5704C99.9263 92.8444 100.678 88.0844 101.365 83.2944C101.593 81.7051 101.841 80.1193 102.095 78.5339C102.461 76.2397 102.783 73.9424 103.087 71.639C103.422 69.1577 103.793 66.711 104.318 64.2631C104.614 62.7858 104.824 61.2986 105.041 59.8081C105.366 57.583 105.733 55.3659 106.109 53.1488C106.326 51.8626 106.541 50.5772 106.726 49.2858C109.597 29.3137 108.127 29.2228 115.109 22.9643C118.174 20.7858 122.384 20.775 126.051 21.0458C129.673 21.7202 133.199 23.3583 135.385 26.3843C137.148 29.2376 137.933 32.3607 137.892 35.6855C137.891 35.92 137.889 36.1544 137.887 36.396C137.841 39.3004 137.59 42.1686 136.847 44.9823C136.253 47.2993 135.905 49.6497 135.542 52.0117C135.467 52.4955 135.391 52.9794 135.316 53.4632C134.696 57.4621 134.154 61.4688 133.636 65.4819C133.462 66.8003 133.275 68.1164 133.084 69.4323C132.692 72.1432 132.317 74.8563 131.946 77.5702C131.668 79.5924 131.383 81.6132 131.093 83.6336C130.792 85.7309 130.499 87.8291 130.214 89.9286C130.106 90.7153 129.998 91.502 129.891 92.2887C129.819 92.8187 129.747 93.3487 129.676 93.8787C129.298 96.679 128.886 99.4392 128.261 102.197C127.9 103.904 127.68 105.63 127.451 107.359C127.402 107.712 127.354 108.064 127.304 108.427C126.881 111.552 126.581 114.632 126.567 117.786C126.566 118.077 126.564 118.367 126.562 118.666C126.56 119.277 126.558 119.888 126.557 120.498C126.554 121.418 126.545 122.337 126.536 123.257C126.504 129.428 127.227 135.834 131.416 140.74C133.064 142.289 134.973 142.79 137.193 142.9C142.06 142.74 146.008 138.964 149.349 135.778C149.977 135.183 150.608 134.621 151.276 134.073C151.96 133.5 152.53 132.889 153.106 132.207C158.053 126.439 164.649 122.333 172.267 121.515C173.481 121.467 174.694 121.461 175.909 121.461C176.227 121.457 176.545 121.454 176.873 121.45C182.973 121.439 188.7 123.374 193.186 127.579C196.701 131.344 199.698 137.124 199.598 142.375C199.357 145.027 198.475 147.196 196.954 149.359C196.837 149.538 196.721 149.718 196.6 149.903C194.151 153.241 188.859 154.771 185.234 156.41C179.618 158.868 179.618 158.868 174.564 162.276C174.339 162.445 174.114 162.613 173.882 162.786C170.264 165.528 167.253 168.802 164.804 172.61C164.659 172.835 164.514 173.06 164.365 173.291C160.024 180.089 156.305 187.232 152.73 194.456C152.158 195.611 151.58 196.762 151.003 197.914C150.56 198.799 150.119 199.685 149.684 200.573C148.218 203.554 146.616 206.454 144.997 209.353C144.84 209.634 144.684 209.915 144.522 210.204C144.036 211.076 143.548 211.946 143.059 212.816C142.911 213.082 142.762 213.348 142.608 213.622C141.086 216.321 139.457 218.936 137.587 221.409C137.44 221.605 137.293 221.801 137.141 222.002C136.037 223.452 134.863 224.798 133.616 226.127C132.942 226.862 132.322 227.624 131.703 228.406C129.52 231.108 126.986 233.53 124.329 235.762C124.116 235.952 124.116 235.952 123.898 236.145C119.166 240.31 113.527 242.855 107.571 244.711C106.849 244.938 106.131 245.175 105.414 245.415C87.3322 251.418 63.6475 250.414 46.5196 241.826C45.9471 241.532 45.3764 241.236 44.8067 240.937C44.2459 240.644 43.6817 240.359 43.1165 240.076C40.7049 238.849 38.6173 237.445 36.4907 235.762C36.1207 235.492 35.75 235.223 35.3784 234.955C31.2824 231.866 27.3788 228.271 24.1474 224.28C23.9276 224.01 23.7078 223.741 23.4813 223.464C21.7723 221.328 20.3382 219.089 18.9734 216.722C18.5954 216.075 18.1944 215.442 17.7963 214.807C16.8193 213.171 16.0303 211.451 15.2532 209.713C14.943 209.025 14.6248 208.34 14.3068 207.654C11.2507 200.961 8.88142 193.906 7.49827 186.676C7.42921 186.324 7.36016 185.972 7.28901 185.609C6.38637 181.007 5.53478 176.399 4.91479 171.749C4.87899 171.485 4.84318 171.22 4.8063 170.948C4.35318 167.572 3.97575 164.197 3.69908 160.802C3.55795 159.091 3.38685 157.387 3.19134 155.681C1.58281 141.491 1.0765 127.258 0.629891 112.995C0.609356 112.341 0.588555 111.687 0.567693 111.033C0.394187 105.574 0.261517 100.116 0.177628 94.6547C0.160343 93.5374 0.141678 92.4201 0.122895 91.3027C0.0646633 87.7277 0.0203275 84.1525 0.00683991 80.5769C0.00460672 80.2718 0.00236915 79.9666 6.82911e-05 79.6522C-0.0061665 74.8541 0.411194 70.145 2.61836 65.8262C2.79653 65.4748 2.79653 65.4748 2.97829 65.1164C4.04109 63.2398 5.58302 61.7697 7.66871 61.0999C11.2061 60.3132 15.0357 60.4931 18.2448 62.2918C22.6444 65.259 24.123 69.5726 25.1711 74.592C26.462 81.4172 26.533 88.4597 26.764 95.3797C26.9018 99.478 27.0793 103.562 27.4485 107.646C27.4657 107.841 27.4829 108.037 27.5006 108.238C27.736 112.235 27.7499 112.471 29.0531 115.702C29.219 116.113 29.5856 116.49 30.0184 116.585C30.4722 116.686 30.8497 116.333 30.9707 115.884C31.279 114.741 31.4438 113.633 31.4953 112.408C31.506 112.188 31.5167 111.968 31.5277 111.741C31.6609 108.724 31.6845 105.703 31.7223 102.683C31.8096 95.8604 31.96 89.041 32.166 82.2211C32.1847 81.6038 32.203 80.9865 32.2213 80.3691C32.4344 73.2143 32.4344 73.2143 32.6155 69.8853C32.7502 67.405 32.8298 64.9237 32.9025 62.441C32.9084 62.2392 32.9144 62.0374 32.9205 61.8295C32.9693 60.157 33.0168 58.4843 33.064 56.8117C33.4241 44.0507 33.4241 44.0507 34.062 40.3255C34.2014 39.368 34.2561 38.428 34.3019 37.4617C34.4501 35.1571 34.9892 33.0117 35.6295 30.8056C35.6829 30.617 35.7362 30.4284 35.7911 30.234C36.5252 27.6792 37.5015 25.4978 39.0742 23.3422C39.2457 23.0869 39.2457 23.0869 39.4207 22.8264C40.888 20.8147 43.2857 19.7405 45.6764 19.3235C49.5619 18.9139 52.7285 19.372 55.9565 21.6917C60.4374 25.4514 61.7355 31.2496 62.3255 36.8338C62.4489 38.881 62.4382 40.9306 62.422 42.9807C62.4152 43.9033 62.4161 44.8256 62.418 45.7481C62.4139 48.6877 62.3134 51.5465 61.8928 54.4563C61.6556 56.1944 61.5766 57.9398 61.4823 59.6904C61.4362 60.4907 61.3883 61.2909 61.3399 62.0911C61.3211 62.4018 61.3211 62.4018 61.302 62.7188C61.145 65.2697 60.9483 67.8175 60.7467 70.3652C60.7282 70.6 60.7097 70.8348 60.6906 71.0768C60.4919 73.5828 60.279 76.0843 59.9932 78.5821C59.4428 83.5546 59.4173 88.5495 59.3889 93.5473C59.3852 94.1383 59.38 94.7293 59.3735 95.3204C59.0762 100.214 59.064 100.415 60.6676 104.41C60.8082 104.76 61.0664 105.128 61.4024 105.299C62.7134 105.969 64.0428 104.498 64.368 103.063C65.4208 98.4135 65.7713 93.6195 66.2008 88.8802C66.602 84.4882 67.044 80.1071 67.5866 75.7301C68.003 72.3632 68.3133 68.9985 68.4961 65.6109C68.5082 65.3864 68.5203 65.1618 68.5328 64.9305C68.5926 63.8073 68.6496 62.684 68.7025 61.5604C68.8204 59.153 69.0383 56.7898 69.3572 54.3988C69.6492 52.0946 69.7734 49.7711 69.9324 47.4547C70.3102 41.9526 70.3102 41.9526 70.6579 39.3264C70.9427 37.1649 71.1115 35.0087 71.2421 32.8329C71.2668 32.4441 71.2915 32.0552 71.3163 31.6663C71.4449 29.6035 71.5384 27.5423 71.5945 25.4762C71.6799 22.4635 71.9338 19.4942 72.3186 16.5068C72.3626 16.1526 72.4066 15.7985 72.4519 15.4336C73.0652 10.9599 74.6117 6.04753 78.1135 2.96142C83.679 -1.09467 91.1621 -1.02354 96.4546 3.41779Z" fill="url(#paint0_linear_87_1577)"/>
<path d="M96.4546 3.41779C98.9697 5.74652 100.884 9.41212 101.129 12.864C101.277 19.8243 100.549 26.6354 99.7019 33.5349C99.6341 34.0903 99.5664 34.6457 99.499 35.2011C99.4656 35.4742 99.4322 35.7472 99.3978 36.0285C98.9188 40.15 98.6434 44.2942 98.3351 48.4312C98.1324 51.111 97.9235 53.7616 97.4723 56.4123C97.2498 57.8264 97.159 59.2501 97.059 60.6772C96.9052 62.812 96.7198 64.9407 96.5006 67.0697C96.1654 70.3469 95.9107 73.6291 95.6596 76.9136C95.5605 78.2013 95.461 79.4889 95.3614 80.7765C95.3361 81.1037 95.3108 81.4309 95.2848 81.7681C95.1036 84.1046 94.9137 86.4404 94.72 88.7759C94.6665 89.4258 94.613 90.0758 94.5595 90.7257C94.4828 91.6582 94.4056 92.5907 94.3266 93.5231C93.6317 98.616 93.5506 99.2097 94.1862 103.124C94.3682 104.245 94.9197 105.507 96.0543 105.475C96.8643 105.205 96.8643 105.205 97.179 104.272C97.8603 102.311 98.2792 100.27 98.7275 98.2453C98.7773 98.0226 98.827 97.7999 98.8782 97.5704C99.9263 92.8444 100.678 88.0844 101.365 83.2944C101.593 81.7051 101.841 80.1193 102.095 78.5339C102.461 76.2397 102.783 73.9424 103.087 71.639C103.422 69.1577 103.793 66.711 104.318 64.2631C104.614 62.7858 104.824 61.2986 105.041 59.8081C105.366 57.583 105.733 55.3659 106.109 53.1488C106.326 51.8626 106.541 50.5772 106.726 49.2858C109.597 29.3137 108.127 29.2228 115.109 22.9643C118.174 20.7858 122.384 20.775 126.051 21.0458C129.673 21.7202 133.199 23.3583 135.385 26.3843C137.148 29.2376 137.933 32.3607 137.892 35.6855C137.891 35.92 137.889 36.1544 137.887 36.396C137.841 39.3004 137.59 42.1686 136.847 44.9823C136.253 47.2993 135.905 49.6497 135.542 52.0117C135.467 52.4955 135.391 52.9794 135.316 53.4632C134.696 57.4621 134.154 61.4688 133.636 65.4819C133.462 66.8003 133.275 68.1164 133.084 69.4323C132.692 72.1432 132.317 74.8563 131.946 77.5702C131.668 79.5924 131.383 81.6132 131.093 83.6336C130.792 85.7309 130.499 87.8291 130.214 89.9286C130.106 90.7153 129.998 91.502 129.891 92.2887C129.819 92.8187 129.747 93.3487 129.676 93.8787C129.298 96.679 128.886 99.4392 128.261 102.197C127.9 103.904 127.68 105.63 127.451 107.359C127.402 107.712 127.354 108.064 127.304 108.427C126.881 111.552 126.581 114.632 126.567 117.786C126.566 118.077 126.564 118.367 126.562 118.666C126.56 119.277 126.558 119.888 126.557 120.498C126.554 121.418 126.545 122.337 126.536 123.257C126.504 129.428 127.227 135.834 131.416 140.74C133.064 142.289 134.973 142.79 137.193 142.9C142.06 142.74 146.008 138.964 149.349 135.778C149.977 135.183 150.608 134.621 151.276 134.073C151.96 133.5 152.53 132.889 153.106 132.207C158.053 126.439 164.649 122.333 172.267 121.515C173.481 121.467 174.694 121.461 175.909 121.461C176.227 121.457 176.545 121.454 176.873 121.45C182.973 121.439 188.7 123.374 193.186 127.579C196.701 131.344 199.698 137.124 199.598 142.375C199.357 145.027 198.475 147.196 196.954 149.359C196.837 149.538 196.721 149.718 196.6 149.903C194.151 153.241 188.859 154.771 185.234 156.41C179.618 158.868 179.618 158.868 174.564 162.276C174.339 162.445 174.114 162.613 173.882 162.786C170.264 165.528 167.253 168.802 164.804 172.61C164.659 172.835 164.514 173.06 164.365 173.291C160.024 180.089 156.305 187.232 152.73 194.456C152.158 195.611 151.58 196.762 151.003 197.914C150.56 198.799 150.119 199.685 149.684 200.573C148.218 203.554 146.616 206.454 144.997 209.353C144.84 209.634 144.684 209.915 144.522 210.204C144.036 211.076 143.548 211.946 143.059 212.816C142.911 213.082 142.762 213.348 142.608 213.622C141.086 216.321 139.457 218.936 137.587 221.409C137.44 221.605 137.293 221.801 137.141 222.002C136.037 223.452 134.863 224.798 133.616 226.127C132.942 226.862 132.322 227.624 131.703 228.406C129.52 231.108 126.986 233.53 124.329 235.762C124.116 235.952 124.116 235.952 123.898 236.145C119.166 240.31 113.527 242.855 107.571 244.711C106.849 244.938 106.131 245.175 105.414 245.415C87.3322 251.418 63.6475 250.414 46.5196 241.826C45.9471 241.532 45.3764 241.236 44.8067 240.937C44.2459 240.644 43.6817 240.359 43.1165 240.076C40.7049 238.849 38.6173 237.445 36.4907 235.762C36.1207 235.492 35.75 235.223 35.3784 234.955C31.2824 231.866 27.3788 228.271 24.1474 224.28C23.9276 224.01 23.7078 223.741 23.4813 223.464C21.7723 221.328 20.3382 219.089 18.9734 216.722C18.5954 216.075 18.1944 215.442 17.7963 214.807C16.8193 213.171 16.0303 211.451 15.2532 209.713C14.943 209.025 14.6248 208.34 14.3068 207.654C11.2507 200.961 8.88142 193.906 7.49827 186.676C7.42921 186.324 7.36016 185.972 7.28901 185.609C6.38637 181.007 5.53478 176.399 4.91479 171.749C4.87899 171.485 4.84318 171.22 4.8063 170.948C4.35318 167.572 3.97575 164.197 3.69908 160.802C3.55795 159.091 3.38685 157.387 3.19134 155.681C1.58281 141.491 1.0765 127.258 0.629891 112.995C0.609356 112.341 0.588555 111.687 0.567693 111.033C0.394187 105.574 0.261517 100.116 0.177628 94.6547C0.160343 93.5374 0.141678 92.4201 0.122895 91.3027C0.0646633 87.7277 0.0203275 84.1525 0.00683991 80.5769C0.00460672 80.2718 0.00236915 79.9666 6.82911e-05 79.6522C-0.0061665 74.8541 0.411194 70.145 2.61836 65.8262C2.79653 65.4748 2.79653 65.4748 2.97829 65.1164C4.04109 63.2398 5.58302 61.7697 7.66871 61.0999C11.2061 60.3132 15.0357 60.4931 18.2448 62.2918C22.6444 65.259 24.123 69.5726 25.1711 74.592C26.462 81.4172 26.533 88.4597 26.764 95.3797C26.9018 99.478 27.0793 103.562 27.4485 107.646C27.4657 107.841 27.4829 108.037 27.5006 108.238C27.736 112.235 27.7499 112.471 29.0531 115.702C29.219 116.113 29.5856 116.49 30.0184 116.585C30.4722 116.686 30.8497 116.333 30.9707 115.884C31.279 114.741 31.4438 113.633 31.4953 112.408C31.506 112.188 31.5167 111.968 31.5277 111.741C31.6609 108.724 31.6845 105.703 31.7223 102.683C31.8096 95.8604 31.96 89.041 32.166 82.2211C32.1847 81.6038 32.203 80.9865 32.2213 80.3691C32.4344 73.2143 32.4344 73.2143 32.6155 69.8853C32.7502 67.405 32.8298 64.9237 32.9025 62.441C32.9084 62.2392 32.9144 62.0374 32.9205 61.8295C32.9693 60.157 33.0168 58.4843 33.064 56.8117C33.4241 44.0507 33.4241 44.0507 34.062 40.3255C34.2014 39.368 34.2561 38.428 34.3019 37.4617C34.4501 35.1571 34.9892 33.0117 35.6295 30.8056C35.6829 30.617 35.7362 30.4284 35.7911 30.234C36.5252 27.6792 37.5015 25.4978 39.0742 23.3422C39.2457 23.0869 39.2457 23.0869 39.4207 22.8264C40.888 20.8147 43.2857 19.7405 45.6764 19.3235C49.5619 18.9139 52.7285 19.372 55.9565 21.6917C60.4374 25.4514 61.7355 31.2496 62.3255 36.8338C62.4489 38.881 62.4382 40.9306 62.422 42.9807C62.4152 43.9033 62.4161 44.8256 62.418 45.7481C62.4139 48.6877 62.3134 51.5465 61.8928 54.4563C61.6556 56.1944 61.5766 57.9398 61.4823 59.6904C61.4362 60.4907 61.3883 61.2909 61.3399 62.0911C61.3211 62.4018 61.3211 62.4018 61.302 62.7188C61.145 65.2697 60.9483 67.8175 60.7467 70.3652C60.7282 70.6 60.7097 70.8348 60.6906 71.0768C60.4919 73.5828 60.279 76.0843 59.9932 78.5821C59.4428 83.5546 59.4173 88.5495 59.3889 93.5473C59.3852 94.1383 59.38 94.7293 59.3735 95.3204C59.0762 100.214 59.064 100.415 60.6676 104.41C60.8082 104.76 61.0664 105.128 61.4024 105.299C62.7134 105.969 64.0428 104.498 64.368 103.063C65.4208 98.4135 65.7713 93.6195 66.2008 88.8802C66.602 84.4882 67.044 80.1071 67.5866 75.7301C68.003 72.3632 68.3133 68.9985 68.4961 65.6109C68.5082 65.3864 68.5203 65.1618 68.5328 64.9305C68.5926 63.8073 68.6496 62.684 68.7025 61.5604C68.8204 59.153 69.0383 56.7898 69.3572 54.3988C69.6492 52.0946 69.7734 49.7711 69.9324 47.4547C70.3102 41.9526 70.3102 41.9526 70.6579 39.3264C70.9427 37.1649 71.1115 35.0087 71.2421 32.8329C71.2668 32.4441 71.2915 32.0552 71.3163 31.6663C71.4449 29.6035 71.5384 27.5423 71.5945 25.4762C71.6799 22.4635 71.9338 19.4942 72.3186 16.5068C72.3626 16.1526 72.4066 15.7985 72.4519 15.4336C73.0652 10.9599 74.6117 6.04753 78.1135 2.96142C83.679 -1.09467 91.1621 -1.02354 96.4546 3.41779Z" fill="url(#paint1_radial_87_1577)" fill-opacity="0.25" style="mix-blend-mode:plus-lighter"/>
<path d="M96.4546 3.41779C98.9697 5.74652 100.884 9.41212 101.129 12.864C101.277 19.8243 100.549 26.6354 99.7019 33.5349C99.6341 34.0903 99.5664 34.6457 99.499 35.2011C99.4656 35.4742 99.4322 35.7472 99.3978 36.0285C98.9188 40.15 98.6434 44.2942 98.3351 48.4312C98.1324 51.111 97.9235 53.7616 97.4723 56.4123C97.2498 57.8264 97.159 59.2501 97.059 60.6772C96.9052 62.812 96.7198 64.9407 96.5006 67.0697C96.1654 70.3469 95.9107 73.6291 95.6596 76.9136C95.5605 78.2013 95.461 79.4889 95.3614 80.7765C95.3361 81.1037 95.3108 81.4309 95.2848 81.7681C95.1036 84.1046 94.9137 86.4404 94.72 88.7759C94.6665 89.4258 94.613 90.0758 94.5595 90.7257C94.4828 91.6582 94.4056 92.5907 94.3266 93.5231C93.6317 98.616 93.5506 99.2097 94.1862 103.124C94.3682 104.245 94.9197 105.507 96.0543 105.475C96.8643 105.205 96.8643 105.205 97.179 104.272C97.8603 102.311 98.2792 100.27 98.7275 98.2453C98.7773 98.0226 98.827 97.7999 98.8782 97.5704C99.9263 92.8444 100.678 88.0844 101.365 83.2944C101.593 81.7051 101.841 80.1193 102.095 78.5339C102.461 76.2397 102.783 73.9424 103.087 71.639C103.422 69.1577 103.793 66.711 104.318 64.2631C104.614 62.7858 104.824 61.2986 105.041 59.8081C105.366 57.583 105.733 55.3659 106.109 53.1488C106.326 51.8626 106.541 50.5772 106.726 49.2858C109.597 29.3137 108.127 29.2228 115.109 22.9643C118.174 20.7858 122.384 20.775 126.051 21.0458C129.673 21.7202 133.199 23.3583 135.385 26.3843C137.148 29.2376 137.933 32.3607 137.892 35.6855C137.891 35.92 137.889 36.1544 137.887 36.396C137.841 39.3004 137.59 42.1686 136.847 44.9823C136.253 47.2993 135.905 49.6497 135.542 52.0117C135.467 52.4955 135.391 52.9794 135.316 53.4632C134.696 57.4621 134.154 61.4688 133.636 65.4819C133.462 66.8003 133.275 68.1164 133.084 69.4323C132.692 72.1432 132.317 74.8563 131.946 77.5702C131.668 79.5924 131.383 81.6132 131.093 83.6336C130.792 85.7309 130.499 87.8291 130.214 89.9286C130.106 90.7153 129.998 91.502 129.891 92.2887C129.819 92.8187 129.747 93.3487 129.676 93.8787C129.298 96.679 128.886 99.4392 128.261 102.197C127.9 103.904 127.68 105.63 127.451 107.359C127.402 107.712 127.354 108.064 127.304 108.427C126.881 111.552 126.581 114.632 126.567 117.786C126.566 118.077 126.564 118.367 126.562 118.666C126.56 119.277 126.558 119.888 126.557 120.498C126.554 121.418 126.545 122.337 126.536 123.257C126.504 129.428 127.227 135.834 131.416 140.74C133.064 142.289 134.973 142.79 137.193 142.9C142.06 142.74 146.008 138.964 149.349 135.778C149.977 135.183 150.608 134.621 151.276 134.073C151.96 133.5 152.53 132.889 153.106 132.207C158.053 126.439 164.649 122.333 172.267 121.515C173.481 121.467 174.694 121.461 175.909 121.461C176.227 121.457 176.545 121.454 176.873 121.45C182.973 121.439 188.7 123.374 193.186 127.579C196.701 131.344 199.698 137.124 199.598 142.375C199.357 145.027 198.475 147.196 196.954 149.359C196.837 149.538 196.721 149.718 196.6 149.903C194.151 153.241 188.859 154.771 185.234 156.41C179.618 158.868 179.618 158.868 174.564 162.276C174.339 162.445 174.114 162.613 173.882 162.786C170.264 165.528 167.253 168.802 164.804 172.61C164.659 172.835 164.514 173.06 164.365 173.291C160.024 180.089 156.305 187.232 152.73 194.456C152.158 195.611 151.58 196.762 151.003 197.914C150.56 198.799 150.119 199.685 149.684 200.573C148.218 203.554 146.616 206.454 144.997 209.353C144.84 209.634 144.684 209.915 144.522 210.204C144.036 211.076 143.548 211.946 143.059 212.816C142.911 213.082 142.762 213.348 142.608 213.622C141.086 216.321 139.457 218.936 137.587 221.409C137.44 221.605 137.293 221.801 137.141 222.002C136.037 223.452 134.863 224.798 133.616 226.127C132.942 226.862 132.322 227.624 131.703 228.406C129.52 231.108 126.986 233.53 124.329 235.762C124.116 235.952 124.116 235.952 123.898 236.145C119.166 240.31 113.527 242.855 107.571 244.711C106.849 244.938 106.131 245.175 105.414 245.415C87.3322 251.418 63.6475 250.414 46.5196 241.826C45.9471 241.532 45.3764 241.236 44.8067 240.937C44.2459 240.644 43.6817 240.359 43.1165 240.076C40.7049 238.849 38.6173 237.445 36.4907 235.762C36.1207 235.492 35.75 235.223 35.3784 234.955C31.2824 231.866 27.3788 228.271 24.1474 224.28C23.9276 224.01 23.7078 223.741 23.4813 223.464C21.7723 221.328 20.3382 219.089 18.9734 216.722C18.5954 216.075 18.1944 215.442 17.7963 214.807C16.8193 213.171 16.0303 211.451 15.2532 209.713C14.943 209.025 14.6248 208.34 14.3068 207.654C11.2507 200.961 8.88142 193.906 7.49827 186.676C7.42921 186.324 7.36016 185.972 7.28901 185.609C6.38637 181.007 5.53478 176.399 4.91479 171.749C4.87899 171.485 4.84318 171.22 4.8063 170.948C4.35318 167.572 3.97575 164.197 3.69908 160.802C3.55795 159.091 3.38685 157.387 3.19134 155.681C1.58281 141.491 1.0765 127.258 0.629891 112.995C0.609356 112.341 0.588555 111.687 0.567693 111.033C0.394187 105.574 0.261517 100.116 0.177628 94.6547C0.160343 93.5374 0.141678 92.4201 0.122895 91.3027C0.0646633 87.7277 0.0203275 84.1525 0.00683991 80.5769C0.00460672 80.2718 0.00236915 79.9666 6.82911e-05 79.6522C-0.0061665 74.8541 0.411194 70.145 2.61836 65.8262C2.79653 65.4748 2.79653 65.4748 2.97829 65.1164C4.04109 63.2398 5.58302 61.7697 7.66871 61.0999C11.2061 60.3132 15.0357 60.4931 18.2448 62.2918C22.6444 65.259 24.123 69.5726 25.1711 74.592C26.462 81.4172 26.533 88.4597 26.764 95.3797C26.9018 99.478 27.0793 103.562 27.4485 107.646C27.4657 107.841 27.4829 108.037 27.5006 108.238C27.736 112.235 27.7499 112.471 29.0531 115.702C29.219 116.113 29.5856 116.49 30.0184 116.585C30.4722 116.686 30.8497 116.333 30.9707 115.884C31.279 114.741 31.4438 113.633 31.4953 112.408C31.506 112.188 31.5167 111.968 31.5277 111.741C31.6609 108.724 31.6845 105.703 31.7223 102.683C31.8096 95.8604 31.96 89.041 32.166 82.2211C32.1847 81.6038 32.203 80.9865 32.2213 80.3691C32.4344 73.2143 32.4344 73.2143 32.6155 69.8853C32.7502 67.405 32.8298 64.9237 32.9025 62.441C32.9084 62.2392 32.9144 62.0374 32.9205 61.8295C32.9693 60.157 33.0168 58.4843 33.064 56.8117C33.4241 44.0507 33.4241 44.0507 34.062 40.3255C34.2014 39.368 34.2561 38.428 34.3019 37.4617C34.4501 35.1571 34.9892 33.0117 35.6295 30.8056C35.6829 30.617 35.7362 30.4284 35.7911 30.234C36.5252 27.6792 37.5015 25.4978 39.0742 23.3422C39.2457 23.0869 39.2457 23.0869 39.4207 22.8264C40.888 20.8147 43.2857 19.7405 45.6764 19.3235C49.5619 18.9139 52.7285 19.372 55.9565 21.6917C60.4374 25.4514 61.7355 31.2496 62.3255 36.8338C62.4489 38.881 62.4382 40.9306 62.422 42.9807C62.4152 43.9033 62.4161 44.8256 62.418 45.7481C62.4139 48.6877 62.3134 51.5465 61.8928 54.4563C61.6556 56.1944 61.5766 57.9398 61.4823 59.6904C61.4362 60.4907 61.3883 61.2909 61.3399 62.0911C61.3211 62.4018 61.3211 62.4018 61.302 62.7188C61.145 65.2697 60.9483 67.8175 60.7467 70.3652C60.7282 70.6 60.7097 70.8348 60.6906 71.0768C60.4919 73.5828 60.279 76.0843 59.9932 78.5821C59.4428 83.5546 59.4173 88.5495 59.3889 93.5473C59.3852 94.1383 59.38 94.7293 59.3735 95.3204C59.0762 100.214 59.064 100.415 60.6676 104.41C60.8082 104.76 61.0664 105.128 61.4024 105.299C62.7134 105.969 64.0428 104.498 64.368 103.063C65.4208 98.4135 65.7713 93.6195 66.2008 88.8802C66.602 84.4882 67.044 80.1071 67.5866 75.7301C68.003 72.3632 68.3133 68.9985 68.4961 65.6109C68.5082 65.3864 68.5203 65.1618 68.5328 64.9305C68.5926 63.8073 68.6496 62.684 68.7025 61.5604C68.8204 59.153 69.0383 56.7898 69.3572 54.3988C69.6492 52.0946 69.7734 49.7711 69.9324 47.4547C70.3102 41.9526 70.3102 41.9526 70.6579 39.3264C70.9427 37.1649 71.1115 35.0087 71.2421 32.8329C71.2668 32.4441 71.2915 32.0552 71.3163 31.6663C71.4449 29.6035 71.5384 27.5423 71.5945 25.4762C71.6799 22.4635 71.9338 19.4942 72.3186 16.5068C72.3626 16.1526 72.4066 15.7985 72.4519 15.4336C73.0652 10.9599 74.6117 6.04753 78.1135 2.96142C83.679 -1.09467 91.1621 -1.02354 96.4546 3.41779Z" stroke="url(#paint2_linear_87_1577)" stroke-opacity="0.5" stroke-width="3" style="mix-blend-mode:overlay" mask="url(#path-1-inside-1_87_1577)"/>
<g filter="url(#filter0_d_87_1577)">
<path d="M64.281 171.085C64.5658 171.086 64.5658 171.086 64.8564 171.087C71.5384 171.122 79.5133 173.137 84.4286 178.064C85.1713 179.27 85.2869 180.417 85.0027 181.796C84.0316 183.559 82.4702 184.942 81.0389 186.333C80.4521 186.92 79.9191 187.527 79.3872 188.165C78.1301 189.61 77.0076 190.868 75.0467 191.114C73.5437 191.064 72.4433 190.35 71.1883 189.582C68.103 187.743 65.4456 186.958 61.7951 187.704C58.3658 188.894 56.3474 191.703 54.8105 194.828C52.8215 199.314 52.9478 204.499 54.575 209.066C56.0087 212.391 57.7388 214.663 61.0483 216.212C63.622 217.037 66.495 216.883 68.9356 215.702C70.7846 214.655 71.7455 213.263 72.6594 211.362C72.9849 210.168 72.1872 209.016 70.9571 209.152C70.8358 209.166 70.71 209.179 70.5783 209.191C69.1005 209.306 67.629 209.395 66.1469 209.425C65.8201 209.432 65.4934 209.439 65.1568 209.447C64.3348 209.353 64.3348 209.353 63.8269 209.025C62.0331 206.315 61.9616 201.587 62.3255 198.445C62.6881 197.53 62.9377 197.335 63.7607 196.723C65.2223 196.228 66.6436 196.003 68.1675 195.839C68.6428 195.784 69.1181 195.73 69.5933 195.675C69.8417 195.647 70.0901 195.619 70.346 195.59C75.1908 195.041 79.9992 194.361 84.8038 193.53C85.1212 193.476 85.1212 193.476 85.4451 193.421C86.0116 193.324 86.5778 193.225 87.144 193.126C88.4926 192.947 89.6971 192.8 90.9737 193.316C92.8995 194.951 93.1131 198.917 93.3273 201.315C93.8332 210.349 91.4361 218.555 85.4479 225.446C81.6015 229.745 76.4327 232.242 70.9371 233.752C70.6007 233.85 70.2644 233.947 69.9178 234.047C62.4126 235.892 53.8567 234.573 47.1116 230.882C45.4201 229.827 43.8149 228.647 42.2317 227.437C41.9682 227.238 41.7048 227.038 41.4333 226.833C40.8046 226.296 40.3378 225.767 39.8456 225.105C39.3249 224.41 38.8065 223.728 38.2387 223.071C33.0716 217.051 31.1378 208.819 31.674 201.014C32.0589 196.794 32.9673 192.813 34.7683 188.972C34.8481 188.797 34.9279 188.621 35.0101 188.44C36.4491 185.316 38.4222 182.834 40.7964 180.36C41.0085 180.14 41.2205 179.919 41.4389 179.691C44.9661 176.328 49.4294 174.13 53.983 172.556C54.1883 172.484 54.3937 172.412 54.6052 172.338C57.7874 171.281 60.9451 171.07 64.281 171.085Z" fill="white"/>
<path d="M64.2791 171.585C64.5637 171.586 64.5642 171.585 64.8542 171.586V171.587C71.4479 171.622 79.2421 173.609 84.031 178.374C84.6558 179.413 84.7669 180.394 84.5271 181.618C83.5991 183.268 82.1311 184.575 80.6902 185.974L80.6853 185.979C80.0864 186.579 79.5443 187.196 79.0095 187.836C77.7481 189.287 76.7463 190.381 75.0232 190.611C73.6958 190.555 72.7162 189.931 71.449 189.156L71.4441 189.153L70.8562 188.812C67.9326 187.171 65.2624 186.485 61.6951 187.214L61.6628 187.221L61.6316 187.232C58.0131 188.488 55.9172 191.445 54.3621 194.607L54.3572 194.616L54.3533 194.625C52.3037 199.249 52.442 204.569 54.1042 209.234L54.1091 209.249L54.116 209.264C55.5819 212.664 57.3843 215.049 60.8367 216.664L60.865 216.678L60.8953 216.688C63.5851 217.55 66.5914 217.392 69.1531 216.152L69.1677 216.145L69.1824 216.137C71.1562 215.019 72.1743 213.525 73.1101 211.578L73.1296 211.537L73.1414 211.494C73.342 210.757 73.202 210.011 72.7927 209.46C72.3772 208.901 71.6987 208.567 70.9021 208.656L70.5398 208.693C69.0672 208.807 67.6062 208.896 66.1375 208.925H66.1355C65.8207 208.932 65.506 208.939 65.1824 208.947C64.7721 208.9 64.631 208.881 64.5251 208.847C64.4462 208.822 64.3851 208.787 64.1882 208.661C63.3922 207.411 62.9532 205.683 62.7644 203.846C62.575 202.003 62.6412 200.101 62.8142 198.57C62.9738 198.176 63.0965 197.97 63.2458 197.8C63.4058 197.618 63.6132 197.457 63.9939 197.173C65.3798 196.713 66.7381 196.496 68.2214 196.336L68.2244 196.335C68.6996 196.281 69.1749 196.226 69.6501 196.171L69.6492 196.17L70.4021 196.086C75.2553 195.536 80.0726 194.855 84.8865 194.023L84.8875 194.024L85.5291 193.914C86.0945 193.818 86.6595 193.718 87.2234 193.62C88.5467 193.443 89.602 193.328 90.7078 193.75C91.5031 194.464 91.9949 195.696 92.3035 197.134C92.6162 198.592 92.7203 200.144 92.8289 201.36C93.3246 210.273 90.9592 218.341 85.0701 225.118C81.3105 229.317 76.2433 231.775 70.8044 233.27L70.7986 233.272C70.4642 233.369 70.1293 233.465 69.7849 233.565C62.419 235.371 54.0053 234.079 47.3689 230.453C45.7005 229.411 44.112 228.245 42.5349 227.04L42.5339 227.038L41.7439 226.441C41.1571 225.938 40.7185 225.441 40.2468 224.807L40.2458 224.805L39.4539 223.766C39.3189 223.594 39.1821 223.422 39.0427 223.251L38.6169 222.745C33.5592 216.851 31.6447 208.765 32.1716 201.06C32.5525 196.883 33.4505 192.961 35.2214 189.184L35.2234 189.179C35.3028 189.004 35.3828 188.83 35.4646 188.65C36.8714 185.595 38.8031 183.159 41.157 180.706C41.3659 180.489 41.5748 180.271 41.7898 180.047C45.2441 176.756 49.6309 174.589 54.1462 173.029L54.1482 173.028C54.3507 172.957 54.553 172.885 54.7615 172.812L54.7625 172.813C57.4803 171.91 60.1895 171.636 63.0457 171.591L64.2791 171.585Z" stroke="url(#paint3_linear_87_1577)" stroke-opacity="0.5" style="mix-blend-mode:overlay"/>
<path d="M64.056 115.908C64.4759 115.852 64.4759 115.852 64.9042 115.795C65.9589 115.757 66.805 115.947 67.7331 116.449C69.2154 118.058 69.317 120.54 69.6435 122.598C69.7361 123.163 69.8287 123.727 69.9213 124.292C70.0188 124.89 70.1151 125.487 70.2111 126.085C70.41 127.323 70.6122 128.561 70.8149 129.799C71.0839 131.442 71.3517 133.086 71.6186 134.73C72.0885 137.623 72.5675 140.515 73.0522 143.406C73.0906 143.636 73.1289 143.866 73.1685 144.102C73.7398 147.518 74.3506 150.925 75.0159 154.323C76.2085 160.507 76.2085 160.507 75.7723 161.678C74.9938 162.705 73.9979 163.071 72.792 163.367C72.5665 163.422 72.3411 163.478 72.1089 163.535C71.7427 163.623 71.7427 163.623 71.3692 163.714C71.1142 163.775 70.8592 163.837 70.5964 163.901C70.0538 164.032 69.5111 164.162 68.9683 164.292C68.1556 164.488 67.3441 164.687 66.5324 164.887C64.0251 165.494 61.5193 166.05 58.9614 166.398C58.6505 166.445 58.6505 166.445 58.3332 166.493C57.329 166.612 56.7384 166.571 55.8151 166.14C54.496 165.053 54.3148 164.188 54.0814 162.501C54.0535 162.307 54.0256 162.113 53.9969 161.913C53.9083 161.293 53.8233 160.673 53.7387 160.052C53.5552 157.462 53.4861 156.487 53.0988 155.227C52.4908 153.249 50.8281 151.745 48.7828 152.057C48.5567 152.087 48.3307 152.118 48.0978 152.15C45.9609 152.355 45.2321 152.425 44.2181 152.836C42.9499 153.349 42.2417 154.704 42.4094 156.062C42.4377 156.304 42.4661 156.546 42.4952 156.795C42.71 158.554 42.976 160.302 43.2598 162.051C43.3668 162.724 43.4734 163.398 43.5801 164.071C43.6525 164.519 43.7271 164.967 43.804 165.415C43.9135 166.053 44.0157 166.692 44.1166 167.331C44.1788 167.703 44.241 168.075 44.305 168.459C44.3209 169.638 44.0834 170.112 43.3467 171.018C42.5571 171.445 42.5571 171.445 41.5591 171.79C41.3716 171.856 41.1841 171.922 40.9909 171.991C40.3026 172.232 39.6115 172.465 38.9204 172.698C38.3114 172.908 37.7026 173.119 37.0938 173.33C35.1129 174.015 33.1274 174.685 31.1407 175.352C30.8544 175.449 30.568 175.545 30.273 175.645C29.5087 175.903 28.7436 176.158 27.9781 176.412C27.7572 176.487 27.5362 176.561 27.3085 176.638C26.1618 177.015 25.0805 177.326 23.8638 177.368C23.0335 176.946 22.4651 176.642 21.9512 175.86C21.8567 175.3 21.7809 174.736 21.7138 174.172C21.6715 173.819 21.6293 173.466 21.5857 173.102C21.5411 172.713 21.4966 172.325 21.4523 171.937C21.4293 171.739 21.4064 171.542 21.3827 171.339C20.9318 167.453 20.5832 163.561 20.2665 159.662C20.1093 157.73 19.9477 155.799 19.7833 153.867C19.7665 153.669 19.7496 153.471 19.7323 153.267C19.4668 150.162 19.1647 147.063 18.8405 143.964C18.8192 143.759 18.7979 143.555 18.7759 143.345C18.5893 141.557 18.4017 139.769 18.2057 137.982C18.0871 136.898 17.9714 135.814 17.856 134.73C17.8016 134.251 17.8016 134.251 17.7461 133.762C17.3792 130.271 17.3792 130.271 18.1584 128.653C19.6693 126.918 21.7978 126.401 23.9189 125.73C24.321 125.598 24.7229 125.466 25.1246 125.333C25.9127 125.072 26.7016 124.815 27.4912 124.559C28.3963 124.26 29.2924 123.948 30.1864 123.618C30.4123 123.535 30.6383 123.452 30.871 123.366C31.2664 123.219 31.661 123.07 32.0547 122.919C33.2772 122.474 34.2946 122.366 35.5878 122.508C36.5638 123.137 37.0728 123.533 37.5678 124.586C37.6973 125.391 37.8114 126.193 37.9144 127.002C37.98 127.488 38.0458 127.974 38.1117 128.46C38.2142 129.226 38.3155 129.992 38.4137 130.759C38.5092 131.499 38.6098 132.238 38.7113 132.978C38.7394 133.207 38.7675 133.437 38.7965 133.674C38.9325 134.864 38.9325 134.864 39.5766 135.827C40.9402 136.655 43.1882 135.884 44.6821 135.521C45.2844 135.359 45.8812 135.186 46.4776 135.004C46.6635 134.948 46.8494 134.892 47.0409 134.835C47.8376 134.576 48.4879 134.271 49.116 133.836C49.6022 133.5 49.803 132.893 49.7011 132.311C49.5823 131.63 49.465 130.948 49.351 130.266C49.1149 128.856 48.8599 127.452 48.5804 126.05C48.4663 125.443 48.3524 124.835 48.2385 124.227C48.1463 123.793 48.1463 123.793 48.0523 123.35C47.6843 121.313 47.6843 121.313 48.4538 120.099C50.4844 118.437 53.3364 118.167 55.8241 117.64C56.57 117.48 57.3157 117.319 58.0614 117.157C58.4096 117.083 58.7578 117.008 59.1165 116.931C59.858 116.767 60.5939 116.594 61.3295 116.406C62.24 116.184 63.1265 116.024 64.056 115.908Z" fill="white"/>
<path d="M64.9441 116.294C65.874 116.263 66.6095 116.425 67.4211 116.851C68.0436 117.556 68.399 118.459 68.6344 119.469C68.8809 120.526 68.979 121.602 69.1493 122.676L69.1496 122.678L69.4276 124.373C69.525 124.97 69.6212 125.567 69.7171 126.164C69.916 127.403 70.1188 128.642 70.3216 129.88C70.5905 131.523 70.8579 133.166 71.1247 134.81C71.3598 136.257 71.5975 137.704 71.8366 139.151L72.5591 143.489C72.5974 143.719 72.6362 143.948 72.6757 144.184C73.2476 147.604 73.8586 151.015 74.5249 154.419C75.124 157.525 75.4155 159.041 75.5071 159.932C75.5519 160.368 75.5452 160.623 75.5123 160.824C75.4815 161.012 75.4239 161.174 75.3285 161.432C74.7489 162.167 74.036 162.508 73.0991 162.77L72.6726 162.881C72.4479 162.936 72.2228 162.992 71.9913 163.049C71.6252 163.137 71.6249 163.137 71.2514 163.228L70.479 163.415L68.8516 163.806L66.4134 164.401C63.9113 165.008 61.4256 165.558 58.894 165.902L58.8862 165.903C58.577 165.95 58.5752 165.95 58.2631 165.997C57.7824 166.054 57.4336 166.068 57.1072 166.027C56.7971 165.987 56.4839 165.894 56.0826 165.711C55.5029 165.225 55.1965 164.809 55.0013 164.35C54.7918 163.858 54.6947 163.284 54.5769 162.433L54.5766 162.43L54.4923 161.842L54.2343 159.984C54.0536 157.434 53.9825 156.399 53.5767 155.08C52.9239 152.957 51.0814 151.201 48.7072 151.562C48.4871 151.592 48.2669 151.621 48.0403 151.652C45.9287 151.855 45.1232 151.93 44.0307 152.372C42.5314 152.979 41.7223 154.564 41.9132 156.12C41.9415 156.362 41.9697 156.604 41.9989 156.854L41.9991 156.855C42.161 158.182 42.3517 159.501 42.5569 160.816L42.7664 162.131C42.8733 162.804 42.9801 163.476 43.0867 164.149L43.0868 164.15C43.1595 164.6 43.2341 165.05 43.3112 165.499C43.4201 166.134 43.5216 166.77 43.6225 167.409L43.6231 167.414C43.683 167.772 43.743 168.131 43.8047 168.5C43.8095 169.036 43.7564 169.368 43.6425 169.657C43.5299 169.943 43.3438 170.22 43.0194 170.625C42.6801 170.808 42.5167 170.896 42.3331 170.975C42.1309 171.063 41.9025 171.142 41.3961 171.317L41.3922 171.318C41.205 171.384 41.0178 171.45 40.8249 171.519C40.1402 171.759 39.4525 171.99 38.7607 172.224L38.7569 172.225L36.9299 172.858C34.9513 173.542 32.9675 174.211 30.9814 174.878L30.9804 174.878C30.6943 174.975 30.4082 175.072 30.1134 175.172C29.35 175.429 28.5853 175.683 27.8202 175.937L27.8184 175.939L27.1526 176.163C26.0549 176.523 25.0634 176.805 23.9713 176.861C23.2541 176.493 22.8251 176.238 22.4269 175.666C22.3878 175.428 22.3509 175.189 22.3175 174.949L22.2107 174.113C22.1686 173.76 22.1259 173.408 22.0824 173.044C22.0378 172.656 21.9931 172.268 21.9487 171.88L21.9486 171.879C21.9257 171.682 21.9035 171.484 21.8798 171.28C21.4299 167.403 21.0814 163.518 20.7649 159.622C20.6077 157.689 20.4456 155.757 20.2811 153.825L20.2307 153.224C19.965 150.116 19.6627 147.013 19.3382 143.912C19.3169 143.708 19.2949 143.504 19.2729 143.293C19.0863 141.505 18.8986 139.716 18.7025 137.928C18.5839 136.845 18.4689 135.761 18.3535 134.677L18.3531 134.674C18.2989 134.196 18.2981 134.194 18.243 133.709C18.0568 131.938 17.9736 131.125 18.0204 130.546C18.0622 130.028 18.2058 129.707 18.5773 128.935C19.9715 127.368 21.9125 126.889 24.0694 126.207L24.0742 126.205C24.4767 126.073 24.8798 125.941 25.2819 125.808C26.0687 125.548 26.8564 125.29 27.645 125.035L27.6478 125.033C28.1029 124.883 28.5559 124.73 29.0074 124.573L30.3592 124.087C30.585 124.004 30.8107 123.921 31.0433 123.835L31.0453 123.835L32.2341 123.386C33.3406 122.984 34.2552 122.88 35.4182 122.995C35.8503 123.276 36.1545 123.493 36.4054 123.742C36.6565 123.992 36.8671 124.289 37.0848 124.74C37.2085 125.514 37.3195 126.286 37.4188 127.065L37.4193 127.069L37.6162 128.527C37.7186 129.292 37.8201 130.057 37.9181 130.823L37.9182 130.824C38.0136 131.563 38.1133 132.301 38.2144 133.037L38.2145 133.038C38.2426 133.268 38.2708 133.498 38.2998 133.734C38.3648 134.303 38.4039 134.669 38.5258 135.006C38.6487 135.345 38.8523 135.643 39.1612 136.105L39.2222 136.197L39.3175 136.254C40.1551 136.763 41.2075 136.754 42.153 136.615C43.1025 136.476 44.0917 136.178 44.8 136.006L44.8001 136.007L44.8115 136.004C45.4193 135.841 46.0205 135.665 46.6202 135.482L46.6213 135.483C46.8072 135.427 46.9938 135.371 47.1853 135.313L47.1957 135.31C48.0296 135.039 48.7256 134.714 49.4006 134.247C50.0741 133.781 50.3232 132.965 50.1941 132.225C50.0753 131.545 49.9583 130.865 49.8446 130.184L49.8445 130.183C49.6669 129.122 49.4778 128.065 49.2764 127.008L49.0709 125.952C48.9571 125.347 48.8437 124.741 48.7302 124.136L48.7279 124.124L48.5414 123.245C48.3522 122.198 48.2842 121.786 48.3224 121.477C48.3548 121.215 48.4649 121.018 48.8327 120.436C49.7581 119.699 50.8783 119.252 52.0961 118.927C53.3612 118.589 54.6398 118.402 55.9282 118.129L55.9292 118.129C56.6754 117.968 57.4217 117.807 58.1673 117.646L58.1662 117.645C58.5143 117.57 58.8627 117.497 59.2213 117.42L59.2241 117.419C59.9682 117.255 60.7074 117.08 61.4471 116.891L61.4482 116.892C62.339 116.675 63.2069 116.518 64.1183 116.404L64.1222 116.404C64.5332 116.349 64.5416 116.347 64.9441 116.294Z" stroke="url(#paint4_linear_87_1577)" stroke-opacity="0.5" style="mix-blend-mode:overlay"/>
<path d="M127.029 150.424C129.009 149.598 131.318 150.703 132.255 152.633C132.398 152.925 132.541 153.216 132.689 153.517C132.917 153.991 132.917 153.991 133.149 154.475C133.397 154.982 133.645 155.489 133.893 155.996C134.153 156.529 134.411 157.062 134.67 157.596C135.18 158.649 135.696 159.7 136.213 160.749C138.03 164.438 139.826 168.136 141.608 171.841C142.978 174.684 144.366 177.517 145.759 180.348C146.211 181.267 146.662 182.188 147.11 183.109C147.221 183.335 147.332 183.562 147.446 183.795C147.72 184.367 147.962 184.903 148.135 185.443C148.64 187.02 147.951 188.675 146.871 189.93C146.75 190.069 146.628 190.21 146.505 190.351C146.192 190.774 145.882 191.199 145.576 191.627C145.045 192.337 144.468 192.961 143.857 193.574C143.335 194.098 142.836 194.646 142.4 195.244C142.344 195.321 142.288 195.399 142.232 195.477C139.979 198.568 139.266 199.545 138.361 199.984C137.397 200.451 136.163 200.627 135.261 200.048C135.063 199.921 134.858 199.749 134.605 199.515C133.786 198.56 133.275 197.424 132.722 196.302C132.591 196.044 132.46 195.786 132.325 195.521C131.832 194.549 131.345 193.573 130.862 192.596C130.677 192.223 130.492 191.85 130.305 191.479C130.07 191.012 129.841 190.544 129.611 190.075C128.807 188.799 127.103 188.512 125.761 189.2C124.955 189.614 124.231 190.189 123.437 190.795C123.005 191.119 122.572 191.443 122.138 191.765C121.949 191.909 121.76 192.052 121.566 192.2C120.774 192.75 120.027 193.459 120.001 194.423C119.953 196.163 120.604 197.703 121.525 199.323C121.799 199.829 122.072 200.336 122.346 200.842C122.643 201.384 122.94 201.926 123.238 202.469C123.875 203.64 124.502 204.817 125.123 205.997C125.348 206.406 125.348 206.406 125.577 206.823C126.103 207.826 126.494 208.724 126.627 209.692C126.811 211.031 126.203 212.35 125.203 213.259C124.926 213.516 124.926 213.516 124.645 213.778C122.83 215.399 120.863 216.786 118.868 218.173C117.73 218.964 116.605 219.762 115.508 220.609C115.217 220.832 115.217 220.832 114.92 221.059C114.559 221.337 114.201 221.618 113.847 221.904C113.711 222.007 113.58 222.104 113.452 222.192C111.694 223.409 109.145 222.634 108.172 220.73C108.105 220.6 108.039 220.462 107.971 220.317C107.847 220.052 107.847 220.052 107.72 219.781C106.389 216.904 105.161 213.977 103.915 211.062C103.14 209.247 102.36 207.434 101.579 205.622C101.503 205.445 101.427 205.268 101.348 205.085C99.7669 201.413 98.1287 197.771 96.4527 194.141C95.2608 191.547 94.1061 188.937 92.9461 186.329C92.8658 186.148 92.7856 185.968 92.7029 185.782C92.1763 184.599 91.6505 183.415 91.1255 182.231C90.9537 181.844 90.7818 181.457 90.6096 181.069C90.3694 180.529 90.1298 179.988 89.8904 179.447C89.7523 179.135 89.6141 178.823 89.4718 178.502C88.9944 177.376 88.6877 176.381 88.5599 175.163C88.5021 174.683 88.4642 174.19 88.6056 173.729C88.6499 173.584 88.7038 173.451 88.7674 173.323C89.1807 172.493 89.9476 171.897 90.7531 171.438C91.0723 171.256 91.3975 171.083 91.7263 170.909C91.9349 170.796 92.1436 170.682 92.3585 170.564C93.023 170.203 93.6901 169.846 94.3574 169.49C94.8025 169.249 95.2474 169.007 95.6921 168.765C96.6968 168.22 97.7026 167.677 98.7121 167.14C99.0727 166.948 99.4327 166.755 99.792 166.561C100.117 166.387 100.413 166.234 100.702 166.106C102.076 165.501 103.72 165.904 104.757 166.989C106.212 168.512 107.034 170.83 107.963 172.638C108.133 172.967 108.304 173.296 108.48 173.635C108.641 173.948 108.802 174.261 108.968 174.584C109.115 174.869 109.262 175.154 109.413 175.447C109.784 176.238 110.607 176.739 111.466 176.585C112.755 176.353 113.691 175.758 115.046 174.947C115.303 174.8 115.56 174.653 115.825 174.501C118.091 173.216 119.142 170.45 117.879 168.171C117.863 168.143 117.848 168.115 117.832 168.087C117.737 167.915 117.643 167.743 117.545 167.566C117.245 167.022 116.939 166.481 116.633 165.939C116.331 165.395 116.029 164.851 115.727 164.306C115.453 163.813 115.177 163.321 114.901 162.83C114.774 162.6 114.66 162.391 114.556 162.201C113.436 160.151 114.056 157.537 116.072 156.357C116.342 156.199 116.635 156.046 116.956 155.894C117.353 155.694 117.75 155.494 118.146 155.293C118.347 155.193 118.547 155.093 118.753 154.99C119.675 154.521 120.573 154.013 121.471 153.502C121.811 153.31 122.15 153.119 122.489 152.927C122.993 152.642 123.497 152.356 124.001 152.07C124.492 151.792 124.983 151.516 125.475 151.239C125.758 151.079 126.041 150.919 126.332 150.754C126.576 150.626 126.807 150.517 127.029 150.424Z" fill="white"/>
<path d="M127.222 150.886C128.914 150.18 130.962 151.115 131.805 152.851L131.806 152.853C131.948 153.143 132.091 153.434 132.238 153.732L132.238 153.733C132.466 154.207 132.466 154.208 132.698 154.692L132.7 154.695L133.443 156.215C133.703 156.748 133.961 157.281 134.22 157.815C134.73 158.869 135.248 159.92 135.765 160.97C137.581 164.657 139.376 168.354 141.158 172.058C142.528 174.903 143.916 177.737 145.31 180.569C145.762 181.488 146.213 182.407 146.661 183.328L146.661 183.329C146.771 183.554 146.881 183.779 146.995 184.01L146.995 184.011C147.267 184.581 147.497 185.091 147.659 185.596C148.088 186.936 147.517 188.413 146.492 189.603C146.372 189.742 146.252 189.881 146.128 190.023L146.115 190.038L146.103 190.054L145.175 191.327C144.664 192.011 144.105 192.616 143.502 193.221C142.971 193.754 142.452 194.322 141.996 194.949L141.828 195.182C140.696 196.735 139.966 197.734 139.407 198.404C138.851 199.069 138.501 199.36 138.143 199.533C137.249 199.967 136.22 200.069 135.531 199.627C135.376 199.528 135.203 199.385 134.966 199.168C134.21 198.277 133.731 197.219 133.171 196.081L133.168 196.075L132.77 195.294L132.771 195.294C132.525 194.809 132.28 194.323 132.037 193.837L131.31 192.374L130.751 191.254C130.518 190.79 130.289 190.324 130.06 189.856L130.048 189.831L130.034 189.809L129.94 189.668C128.938 188.251 127.007 187.999 125.533 188.755C124.892 189.084 124.301 189.509 123.717 189.952L123.137 190.394C122.705 190.718 122.273 191.042 121.84 191.365L121.836 191.367C121.647 191.51 121.458 191.654 121.263 191.802C120.468 192.357 119.535 193.189 119.501 194.408C119.45 196.288 120.155 197.926 121.09 199.57C121.362 200.073 121.634 200.576 121.906 201.08L121.907 201.082C122.204 201.624 122.502 202.165 122.798 202.707L122.799 202.708C123.435 203.876 124.06 205.051 124.68 206.229L124.684 206.238L125.139 207.064C125.656 208.05 126.011 208.883 126.132 209.76C126.289 210.903 125.772 212.067 124.867 212.889L124.862 212.893C124.588 213.147 124.586 213.15 124.311 213.405C122.522 215.003 120.579 216.374 118.582 217.762C117.444 218.554 116.311 219.358 115.204 220.212C114.913 220.435 114.913 220.435 114.616 220.662L114.614 220.664C114.255 220.941 113.897 221.222 113.543 221.506C113.413 221.606 113.288 221.698 113.167 221.781C111.685 222.808 109.467 222.166 108.618 220.503C108.554 220.379 108.49 220.247 108.424 220.106L108.424 220.105L108.172 219.569C106.846 216.701 105.622 213.784 104.375 210.866C103.599 209.05 102.819 207.237 102.039 205.424C101.963 205.247 101.886 205.07 101.807 204.887C100.224 201.211 98.5835 197.565 96.9064 193.933L96.9074 193.933C96.3122 192.638 95.7258 191.338 95.1436 190.036L93.4033 186.125C93.3231 185.945 93.2421 185.764 93.1594 185.579C92.633 184.396 92.1072 183.213 91.5824 182.029C91.4105 181.641 91.239 181.253 91.0668 180.866C90.8268 180.326 90.5874 179.785 90.3481 179.245L90.3471 179.244C90.209 178.932 90.0715 178.621 89.9292 178.3L89.9283 178.3C89.4661 177.208 89.178 176.263 89.0571 175.11L89.0565 175.102L89.0208 174.759C88.9952 174.428 89.0029 174.138 89.0835 173.875C89.1196 173.757 89.1637 173.65 89.2154 173.546C89.5629 172.848 90.227 172.313 91.0008 171.872C91.3122 171.695 91.6308 171.525 91.9595 171.351L91.9661 171.349C92.1746 171.235 92.3824 171.12 92.5972 171.002C93.2596 170.642 93.9252 170.287 94.5925 169.93L94.5954 169.929C95.0406 169.688 95.4855 169.446 95.9304 169.204C96.9346 168.659 97.9393 168.117 98.9469 167.582C99.3086 167.39 99.6689 167.195 100.029 167C100.352 166.827 100.634 166.683 100.904 166.564C102.067 166.052 103.489 166.387 104.395 167.335C105.072 168.043 105.614 168.951 106.111 169.933C106.358 170.422 106.59 170.921 106.821 171.418C107.051 171.912 107.28 172.404 107.518 172.867L107.519 172.868C107.689 173.197 107.859 173.525 108.035 173.863L108.035 173.864C108.196 174.177 108.357 174.49 108.523 174.813L108.524 174.813C108.671 175.098 108.817 175.382 108.968 175.676C109.425 176.63 110.446 177.276 111.555 177.077C112.951 176.826 113.97 176.172 115.302 175.375C115.556 175.23 115.81 175.086 116.072 174.936C118.531 173.541 119.736 170.491 118.316 167.929C118.301 167.901 118.285 167.874 118.269 167.846L118.27 167.846C118.176 167.674 118.081 167.502 117.983 167.325L117.983 167.324L117.069 165.694L116.165 164.064L115.336 162.585C115.211 162.357 115.098 162.15 114.995 161.961C113.994 160.13 114.561 157.82 116.324 156.788C116.452 156.713 116.585 156.64 116.726 156.567L117.17 156.345L117.18 156.34C117.576 156.141 117.973 155.941 118.369 155.741C118.57 155.641 118.77 155.541 118.976 155.438L118.98 155.436C119.912 154.961 120.819 154.447 121.716 153.937L121.717 153.938L122.735 153.363C123.239 153.077 123.743 152.79 124.247 152.504C124.737 152.227 125.229 151.951 125.72 151.675L125.721 151.674C125.999 151.517 126.277 151.359 126.563 151.197L126.564 151.198C126.798 151.075 127.015 150.972 127.222 150.886Z" stroke="url(#paint5_linear_87_1577)" stroke-opacity="0.5" style="mix-blend-mode:overlay"/>
<path d="M96.138 117.242C96.8273 117.299 97.5169 117.35 98.2066 117.401C102.495 117.739 102.495 117.739 104.522 118.644C105.759 120.129 105.994 121.274 105.988 123.165C105.988 123.462 105.988 123.462 105.988 123.765C105.987 124.429 105.983 125.093 105.98 125.756C105.979 126.231 105.977 126.705 105.976 127.179C105.973 128.199 105.969 129.22 105.965 130.24C105.96 131.315 105.956 132.389 105.953 133.463C105.944 136.527 105.93 139.59 105.905 142.653C105.893 144.095 105.884 145.536 105.88 146.978C105.876 148.405 105.866 149.831 105.852 151.258C105.848 151.795 105.845 152.332 105.845 152.868C105.844 153.609 105.837 154.349 105.827 155.089C105.829 155.416 105.829 155.416 105.832 155.75C105.812 156.739 105.749 157.293 105.142 158.09C102.679 159.896 98.8142 160.363 95.8638 160.962C95.2224 161.093 94.5827 161.232 93.9429 161.37C89.7882 162.245 89.7882 162.245 87.8732 161.702C86.8819 160.78 86.3666 160.156 86.2545 158.794C86.2453 158.333 86.2439 157.872 86.2487 157.411C86.2457 157.158 86.2427 156.905 86.2396 156.643C86.2313 155.803 86.2331 154.963 86.235 154.122C86.2312 153.525 86.2268 152.929 86.2219 152.332C86.2104 150.752 86.2075 149.171 86.2064 147.591C86.2037 146.035 86.193 144.48 86.1829 142.925C86.1658 140.158 86.161 137.391 86.16 134.623C86.1575 132.741 86.1403 130.859 86.1118 128.977C86.0937 127.748 86.0809 126.519 86.0687 125.29C86.0615 124.71 86.0518 124.129 86.0395 123.549C86.0228 122.75 86.0148 121.952 86.0089 121.153C86.0016 120.918 85.9944 120.684 85.9869 120.442C85.9873 119.212 86.0397 118.782 86.8416 117.788C89.1829 115.968 93.3075 117.008 96.138 117.242Z" fill="white"/>
<path d="M86.7067 147.59L86.6832 142.922C86.6747 141.539 86.6691 140.156 86.6656 138.773L86.6598 134.623C86.6573 132.738 86.6405 130.854 86.6119 128.969C86.5939 127.742 86.5812 126.514 86.569 125.285V125.284L86.5397 123.539C86.523 122.743 86.5144 121.948 86.5084 121.149H86.5094L86.5084 121.137C86.5013 120.908 86.4942 120.678 86.4869 120.442C86.4871 119.82 86.5033 119.474 86.5934 119.168C86.6769 118.884 86.8361 118.598 87.194 118.148C88.2168 117.38 89.661 117.184 91.2877 117.244C92.1036 117.274 92.9404 117.367 93.7594 117.469C94.5698 117.569 95.3754 117.681 96.0963 117.741H96.0973C96.7887 117.797 97.4801 117.848 98.1696 117.899C100.328 118.069 101.363 118.152 102.116 118.301C102.815 118.438 103.265 118.63 104.208 119.051C104.749 119.717 105.062 120.292 105.243 120.896C105.434 121.534 105.491 122.235 105.488 123.164V123.764C105.487 124.427 105.483 125.09 105.48 125.754V125.755L105.476 127.177C105.473 128.198 105.469 129.218 105.464 130.238C105.46 131.313 105.456 132.387 105.453 133.462C105.444 136.524 105.43 139.587 105.405 142.649C105.393 144.091 105.384 145.534 105.38 146.976C105.375 148.402 105.366 149.828 105.352 151.254V151.255C105.348 151.792 105.346 152.33 105.345 152.868L105.328 155.083H105.327L105.328 155.093L105.332 155.754C105.322 156.24 105.3 156.57 105.223 156.866C105.153 157.137 105.026 157.4 104.782 157.731C103.637 158.551 102.155 159.089 100.563 159.494C98.9343 159.908 97.2713 160.167 95.7643 160.472H95.7633C95.1196 160.604 94.4782 160.742 93.8395 160.881C91.7403 161.323 90.7507 161.53 90.0406 161.569C89.4041 161.604 89.0074 161.503 88.1276 161.254C87.6825 160.835 87.3759 160.508 87.1617 160.154C86.944 159.794 86.8056 159.379 86.7535 158.769C86.7492 158.546 86.7476 158.323 86.7467 158.1L86.7487 157.417V157.405L86.7399 156.637C86.7316 155.801 86.7331 154.964 86.735 154.123V154.119L86.7223 152.328C86.7108 150.749 86.7078 149.171 86.7067 147.591V147.59Z" stroke="url(#paint6_linear_87_1577)" stroke-opacity="0.5" style="mix-blend-mode:overlay"/>
</g>
<defs>
<filter id="filter0_d_87_1577" x="7.5083" y="105.79" width="150.795" height="139.084" filterUnits="userSpaceOnUse" color-interpolation-filters="sRGB">
<feFlood flood-opacity="0" result="BackgroundImageFix"/>
<feColorMatrix in="SourceAlpha" type="matrix" values="0 0 0 0 0 0 0 0 0 0 0 0 0 0 0 0 0 0 127 0" result="hardAlpha"/>
<feOffset/>
<feGaussianBlur stdDeviation="5"/>
<feComposite in2="hardAlpha" operator="out"/>
<feColorMatrix type="matrix" values="0 0 0 0 0.00392157 0 0 0 0 0.513726 0 0 0 0 0.941176 0 0 0 0.75 0"/>
<feBlend mode="normal" in2="BackgroundImageFix" result="effect1_dropShadow_87_1577"/>
<feBlend mode="normal" in="SourceGraphic" in2="effect1_dropShadow_87_1577" result="shape"/>
</filter>
<linearGradient id="paint0_linear_87_1577" x1="78.7962" y1="4.01875" x2="85.1114" y2="263.659" gradientUnits="userSpaceOnUse">
<stop offset="0.106536" stop-color="#0183F0"/>
<stop offset="0.786029" stop-color="#1A96FE"/>
<stop offset="0.966346" stop-color="#016ECA"/>
</linearGradient>
<radialGradient id="paint1_radial_87_1577" cx="0" cy="0" r="1" gradientUnits="userSpaceOnUse" gradientTransform="translate(81.9538 166.922) rotate(80.4375) scale(107.998 101.923)">
<stop stop-color="#B3DCFF"/>
<stop offset="1" stop-color="#40A7FE" stop-opacity="0"/>
</radialGradient>
<linearGradient id="paint2_linear_87_1577" x1="99.8001" y1="0" x2="89" y2="249" gradientUnits="userSpaceOnUse">
<stop stop-color="#0183F0"/>
<stop offset="0.421281" stop-color="#1A96FE"/>
<stop offset="0.634615" stop-color="#1A96FE"/>
<stop offset="1" stop-color="#016ECA"/>
</linearGradient>
<linearGradient id="paint3_linear_87_1577" x1="62.4903" y1="171.084" x2="60.204" y2="234.854" gradientUnits="userSpaceOnUse">
<stop stop-color="#0183F0"/>
<stop offset="0.421281" stop-color="#1A96FE"/>
<stop offset="0.634615" stop-color="#1A96FE"/>
<stop offset="1" stop-color="#016ECA"/>
</linearGradient>
<linearGradient id="paint4_linear_87_1577" x1="43.1067" y1="118.372" x2="47.7519" y2="174.557" gradientUnits="userSpaceOnUse">
<stop stop-color="#0183F0"/>
<stop offset="0.421281" stop-color="#1A96FE"/>
<stop offset="0.634615" stop-color="#1A96FE"/>
<stop offset="1" stop-color="#016ECA"/>
</linearGradient>
<linearGradient id="paint5_linear_87_1577" x1="116.2" y1="150.966" x2="118.564" y2="222.412" gradientUnits="userSpaceOnUse">
<stop stop-color="#0183F0"/>
<stop offset="0.421281" stop-color="#1A96FE"/>
<stop offset="0.634615" stop-color="#1A96FE"/>
<stop offset="1" stop-color="#016ECA"/>
</linearGradient>
<linearGradient id="paint6_linear_87_1577" x1="95.9876" y1="116.734" x2="92.4358" y2="161.839" gradientUnits="userSpaceOnUse">
<stop stop-color="#0183F0"/>
<stop offset="0.421281" stop-color="#1A96FE"/>
<stop offset="0.634615" stop-color="#1A96FE"/>
<stop offset="1" stop-color="#016ECA"/>
</linearGradient>
</defs>
</svg>
