<svg width="35" height="35" viewBox="0 0 35 35" fill="none" xmlns="http://www.w3.org/2000/svg">
<path d="M12.7102 19.3229C10.7724 19.3229 8.97933 20.3484 7.99672 22.0185L7.03163 23.659C6.26992 24.9536 5.94318 26.4656 6.25512 27.8247C6.58069 29.2432 7.58935 30.3991 9.24005 30.8255C13.8501 32.0166 21.1496 32.0166 25.7597 30.8255C27.4104 30.3991 28.4189 29.2432 28.7446 27.8247C29.0565 26.4656 28.7297 24.9536 27.968 23.659L27.0029 22.0185C26.0203 20.3484 24.2273 19.3229 22.2894 19.3229H12.7102Z" fill="currentColor"/>
<path opacity="0.4" d="M17.4998 3.28125C13.6741 3.28125 10.5728 6.38261 10.5728 10.2083C10.5728 14.0341 13.6741 17.1354 17.4998 17.1354C21.3256 17.1354 24.4268 14.0341 24.4268 10.2083C24.4268 6.38261 21.3256 3.28125 17.4998 3.28125Z" fill="currentColor"/>
</svg>
