<svg width="87" height="53" viewBox="0 0 87 53" fill="none" xmlns="http://www.w3.org/2000/svg">
<path d="M71.5071 5.28536C71.2381 5.37104 70.9675 5.5773 70.8291 5.82592C70.5758 6.33927 70.3932 6.87213 70.2165 7.41572C70.2022 7.45946 70.188 7.50321 70.1737 7.54694C70.1667 7.56845 70.1597 7.58996 70.1524 7.61211C70.0448 7.93589 69.9212 8.25425 69.8003 8.57322C69.7222 8.77994 69.6456 8.9847 69.5871 9.19794C69.5545 9.31105 69.5118 9.42029 69.4696 9.5301C69.4068 9.69452 69.3466 9.85958 69.2889 10.0258C69.2 10.2817 69.1048 10.5351 69.0093 10.7886C68.9719 10.888 68.9345 10.9874 68.8972 11.0868C68.8877 11.112 68.8782 11.1373 68.8684 11.1633C68.8006 11.3437 68.7335 11.5244 68.6668 11.7051C68.6481 11.7554 68.6295 11.8057 68.6109 11.856C68.5842 11.9281 68.5575 12.0003 68.531 12.0725C68.4058 12.4761 68.3911 12.5232 68.2076 12.7924C68.1549 12.8697 68.0696 12.9446 67.986 12.9027C67.9348 12.8543 67.9348 12.8543 67.9437 12.7738C67.9611 12.6038 68.0008 12.4372 68.0377 12.2707C68.0417 12.2524 68.0458 12.234 68.0499 12.2151C68.136 11.8265 68.2454 11.4456 68.3608 11.0648C68.399 10.9384 68.4357 10.8116 68.4719 10.6846C68.5243 10.5009 68.5802 10.3185 68.6376 10.1363C68.6989 9.93977 68.7563 9.74454 68.8022 9.54381C68.8315 9.42344 68.8676 9.30531 68.9032 9.1867C68.9563 9.00957 69.0061 8.83159 69.0551 8.65329C69.0836 8.54988 69.1122 8.4466 69.1434 8.34395C69.6237 6.75578 69.7368 6.80034 69.4326 6.09033C69.2793 5.82102 68.9649 5.67321 68.6814 5.56535C68.3872 5.48916 68.0666 5.48811 67.7979 5.63721C67.5668 5.78823 67.3995 5.99352 67.2869 6.24262C67.2788 6.26015 67.2708 6.27767 67.2625 6.29573C67.1649 6.51373 67.0839 6.73617 67.0415 6.97172C67.0053 7.1651 66.9495 7.35234 66.8945 7.54098C66.8833 7.57966 66.8721 7.61834 66.8609 7.65702C66.768 7.97656 66.6692 8.29399 66.5683 8.61108C66.5354 8.71535 66.5036 8.81994 66.472 8.92463C66.4071 9.14029 66.3407 9.35552 66.274 9.57066C66.2244 9.731 66.1754 9.89151 66.1268 10.0522C66.0763 10.2189 66.0252 10.3855 65.9735 10.5518C65.9541 10.6142 65.9348 10.6766 65.9155 10.7389C65.9024 10.7809 65.8894 10.8229 65.8762 10.8649C65.807 11.0867 65.7418 11.3067 65.6926 11.534C65.6601 11.6738 65.6165 11.8101 65.5735 11.9469C65.5648 11.9748 65.5562 12.0028 65.5473 12.0316C65.4702 12.2791 65.3854 12.5191 65.2767 12.7545C65.2667 12.7762 65.2567 12.7979 65.2465 12.8203C65.2254 12.8659 65.2043 12.9114 65.1832 12.9569C65.1514 13.0256 65.12 13.0944 65.0887 13.1632C64.8764 13.624 64.5994 14.0761 64.1156 14.2954C63.9385 14.3532 63.7784 14.3239 63.6086 14.2546C63.2503 14.0727 63.0867 13.6535 62.9478 13.2995C62.9215 13.2333 62.8939 13.1694 62.863 13.1053C62.8318 13.0387 62.8104 12.9732 62.7911 12.9024C62.622 12.2999 62.2719 11.7637 61.7309 11.4368C61.6417 11.3909 61.5513 11.3481 61.4605 11.3057C61.4368 11.2943 61.4132 11.2829 61.3888 11.2712C60.9332 11.0574 60.4378 11.0016 59.9561 11.1583C59.5624 11.3161 59.1372 11.6421 58.962 12.0368C58.8877 12.2427 58.8782 12.4351 58.9167 12.6493C58.9191 12.6668 58.9216 12.6842 58.9241 12.7022C58.9911 13.0364 59.3334 13.3352 59.5474 13.5838C59.8816 13.963 59.8816 13.963 60.1409 14.3934C60.1519 14.4138 60.1628 14.4342 60.1741 14.4552C60.3491 14.7858 60.4603 15.1348 60.5109 15.504C60.5139 15.5258 60.5169 15.5476 60.52 15.5701C60.6079 16.2281 60.6374 16.89 60.6533 17.5531C60.6559 17.6591 60.659 17.765 60.6621 17.871C60.6644 17.9524 60.6665 18.0337 60.6681 18.1151C60.674 18.3884 60.6928 18.6603 60.713 18.9329C60.7149 18.9593 60.7169 18.9857 60.7188 19.0129C60.7249 19.0947 60.7311 19.1766 60.7373 19.2585C60.7392 19.2835 60.7411 19.3085 60.743 19.3343C60.7629 19.5885 60.7936 19.8402 60.8474 20.0898C60.8516 20.1095 60.8558 20.1292 60.8601 20.1495C60.8922 20.296 60.9331 20.4373 60.9801 20.5799C61.0049 20.6582 61.0247 20.7366 61.0438 20.8165C61.113 21.094 61.2181 21.3629 61.339 21.6219C61.3484 21.6435 61.3484 21.6435 61.358 21.6655C61.5667 22.141 61.8997 22.5274 62.2804 22.8737C62.3264 22.9158 62.3718 22.9585 62.4171 23.0015C63.5598 24.08 65.3653 24.832 66.9444 24.7902C66.9974 24.7883 67.0504 24.7862 67.1034 24.7838C67.1555 24.7816 67.2076 24.78 67.2597 24.7786C67.4826 24.7714 67.6875 24.7397 67.9051 24.6886C67.9421 24.6814 67.9792 24.6742 68.0163 24.6673C68.43 24.5801 68.8469 24.4486 69.2273 24.2641C69.2531 24.2517 69.2789 24.2393 69.3055 24.2265C69.5075 24.1271 69.6926 24.0104 69.877 23.8816C69.9278 23.8466 69.9798 23.8135 70.0316 23.7801C70.1616 23.6923 70.2804 23.5917 70.399 23.4894C70.4461 23.4489 70.4937 23.409 70.5414 23.369C71.0027 22.9771 71.4253 22.5342 71.7803 22.0438C71.7977 22.02 71.8151 21.9962 71.833 21.9717C72.0606 21.6603 72.2846 21.3467 72.4928 21.022C72.5046 21.0035 72.5165 20.9851 72.5287 20.9661C72.6801 20.7304 72.8257 20.4921 72.9645 20.2489C73.0346 20.1263 73.1067 20.0053 73.1807 19.885C73.7947 18.884 74.3277 17.8414 74.8574 16.7944C74.8817 16.7463 74.906 16.6983 74.9303 16.6503C75.1333 16.2497 75.3331 15.8477 75.5294 15.4438C75.5695 15.3612 75.6098 15.2786 75.6501 15.196C75.7788 14.9317 75.9066 14.6669 76.032 14.401C76.0428 14.3783 76.0536 14.3556 76.0647 14.3323C76.2321 13.9751 76.3647 13.6097 76.35 13.2109C76.3489 13.1785 76.3489 13.1785 76.3478 13.1454C76.3337 12.9685 76.2696 12.8051 76.137 12.6824C75.8999 12.5003 75.6074 12.38 75.3049 12.402C74.8728 12.4694 74.6122 12.7392 74.3592 13.0765C74.0252 13.54 73.7748 14.0621 73.5168 14.5696C73.3639 14.8701 73.2085 15.1682 73.0388 15.4596C73.0307 15.4735 73.0226 15.4875 73.0143 15.5018C72.8577 15.7913 72.8484 15.8085 72.6387 16.0036C72.6119 16.0285 72.5713 16.0438 72.5356 16.0358C72.4982 16.0275 72.4823 15.988 72.4889 15.9502C72.5056 15.8543 72.5318 15.7661 72.5706 15.6731C72.5775 15.6563 72.5843 15.6395 72.5914 15.6222C72.6864 15.3928 72.7898 15.1669 72.892 14.9406C73.1229 14.4293 73.3489 13.916 73.5708 13.4007C73.5909 13.3541 73.611 13.3074 73.6311 13.2608C73.8642 12.7203 73.8642 12.7203 73.9665 12.466C74.0427 12.2765 74.1231 12.0889 74.204 11.9014C74.2106 11.8861 74.2172 11.8709 74.224 11.8552C74.2785 11.7289 74.3332 11.6026 74.3878 11.4763C74.8049 10.5131 74.8049 10.5131 74.8869 10.2133C74.9098 10.1371 74.9384 10.0651 74.9686 9.99154C75.0377 9.81467 75.072 9.63602 75.1009 9.44931C75.1035 9.4334 75.1061 9.41748 75.1087 9.40109C75.1428 9.18512 75.1457 8.98852 75.1031 8.77302C75.0992 8.74801 75.0992 8.74801 75.0952 8.7225C75.0555 8.52139 74.9136 8.35766 74.7494 8.24313C74.4733 8.07696 74.2206 8.00054 73.8986 8.06065C73.4328 8.18432 73.134 8.57097 72.8956 8.96639C72.8152 9.1146 72.7447 9.26767 72.6745 9.42097C72.6429 9.48994 72.6108 9.55862 72.5785 9.62728C72.4766 9.84642 72.3846 10.0629 72.3148 10.2944C72.2721 10.4321 72.2172 10.5649 72.1634 10.6987C72.139 10.7599 72.1147 10.8212 72.0905 10.8825C72.0811 10.9063 72.0811 10.9063 72.0715 10.9306C71.9944 11.1261 71.9205 11.3228 71.8469 11.5196C71.8401 11.5378 71.8333 11.5559 71.8263 11.5746C71.754 11.7682 71.6829 11.962 71.6173 12.1581C71.4855 12.5477 71.3136 12.9208 71.1418 13.2941C71.1215 13.3383 71.1013 13.3825 71.0812 13.4267C70.9332 13.8016 70.9271 13.8171 70.6684 14.0586C70.6456 14.0799 70.6134 14.0983 70.5823 14.0993C70.461 14.1034 70.4129 13.9473 70.4386 13.8287C70.5217 13.4457 70.6622 13.0765 70.795 12.7086C70.9178 12.3674 71.0372 12.0255 71.149 11.6805C71.235 11.4151 71.3289 11.1536 71.4331 10.8949C71.44 10.8777 71.4469 10.8606 71.454 10.8429C71.4886 10.7571 71.5234 10.6714 71.5586 10.5859C71.6335 10.4024 71.6995 10.2188 71.7588 10.0295C71.8172 9.84764 71.8887 9.6702 71.9574 9.49208C72.1207 9.06898 72.1207 9.06898 72.186 8.86119C72.24 8.69021 72.3024 8.52368 72.3683 8.35702C72.38 8.32719 72.3917 8.29736 72.4034 8.26752C72.4655 8.10935 72.5302 7.95253 72.5979 7.79664C72.6964 7.56922 72.7807 7.33914 72.8559 7.10314C72.865 7.07522 72.874 7.0473 72.8833 7.01853C72.9931 6.66383 73.0484 6.24386 72.8941 5.89169C72.6192 5.3952 72.0573 5.13925 71.5071 5.28536Z" fill="white"/>
<path d="M68.8268 51.4769L60.1201 50.8337L62.0255 25.0417L70.7322 25.6849L68.8268 51.4769ZM67.0696 16.1587C68.3806 16.2556 69.5569 16.6363 70.3734 17.4858C71.2116 18.3582 71.4829 19.5262 71.3903 20.7806C71.2991 22.0139 70.8429 23.0931 69.9167 23.8532L69.7392 23.99C68.8326 24.6425 67.6747 24.8303 66.4358 24.7388C65.1231 24.6419 63.9458 24.2585 63.1296 23.4037C62.293 22.5273 62.0237 21.3548 62.1167 20.0955C62.2095 18.841 62.6492 17.7256 63.6067 16.9859C64.5392 16.2655 65.7586 16.0619 67.0696 16.1587ZM66.5206 23.5906C66.405 23.5821 66.2929 23.5682 66.1834 23.5549C66.2241 23.5599 66.2651 23.5676 66.3066 23.5719L66.5206 23.5906C66.6578 23.6007 66.7913 23.6055 66.9208 23.6074C66.7913 23.6055 66.6578 23.6007 66.5206 23.5906ZM64.1746 22.8063C64.1379 22.7761 64.1023 22.7451 64.0678 22.7132L64.0605 22.7068C64.0972 22.741 64.1354 22.774 64.1746 22.8063ZM63.7774 22.3901C63.8344 22.4667 63.8957 22.54 63.9619 22.6094C63.8957 22.54 63.8344 22.4667 63.7774 22.3901ZM63.478 21.8559C63.4955 21.8988 63.5138 21.941 63.5333 21.9824C63.5138 21.941 63.4955 21.8988 63.478 21.8559ZM63.265 20.1803L63.2536 20.3744C63.2522 20.4104 63.254 20.4466 63.2534 20.4821C63.2551 20.3838 63.2574 20.2832 63.265 20.1803C63.2746 20.05 63.2885 19.924 63.3066 19.8025C63.2885 19.924 63.2746 20.0501 63.265 20.1803ZM70.2562 20.3179C70.2562 20.4402 70.2516 20.5661 70.242 20.6958C70.2353 20.7866 70.223 20.875 70.2116 20.9618C70.2152 20.9345 70.2214 20.9073 70.2245 20.8796L70.242 20.6958C70.2516 20.5662 70.2562 20.4401 70.2562 20.3179ZM67.3017 17.3392C67.2676 17.3351 67.2335 17.3293 67.1989 17.3257L66.9848 17.3069C67.0932 17.3149 67.1987 17.327 67.3017 17.3392ZM68.6943 23.2753C68.732 23.257 68.7689 23.2377 68.8052 23.2179C68.7689 23.2377 68.732 23.257 68.6943 23.2753ZM63.6977 22.2755C63.715 22.3019 63.7334 22.3274 63.7517 22.353C63.7334 22.3274 63.715 22.3019 63.6977 22.2755ZM69.3562 22.8111C69.3741 22.7937 69.3918 22.776 69.4091 22.7582C69.3918 22.776 69.3742 22.7937 69.3562 22.8111ZM63.4377 21.752C63.4504 21.7872 63.4641 21.8217 63.478 21.8559C63.4641 21.8217 63.4504 21.7872 63.4377 21.752ZM70.2547 20.2727C70.2536 20.1647 70.2504 20.0596 70.2417 19.9574C70.2504 20.0596 70.2536 20.1647 70.2547 20.2727ZM70.2058 19.6747C70.2035 19.6605 70.2017 19.6462 70.1992 19.6321C70.2017 19.6462 70.2035 19.6605 70.2058 19.6747Z" fill="white"/>
<path d="M9.81645 24.7304C9.88519 25.1786 9.99001 26.0918 10.1318 27.4484C11.4823 26.0327 13.3349 25.1578 15.615 24.8079C18.5507 24.3575 21.0881 24.7803 23.0546 26.2824C25.0056 27.7729 26.1385 30.09 26.5896 33.0294L29.0944 49.352L20.4669 50.6759L18.205 35.9364C17.9638 34.3646 17.5163 33.4378 17.0167 32.9443C16.5736 32.5068 15.9627 32.2861 14.9941 32.4346C13.4991 32.664 12.6976 33.2849 12.2907 34.1773C11.8285 35.1913 11.6887 36.9308 12.0955 39.582L13.9513 51.6758L5.32286 52.9999L0 18.3131L8.62849 16.989L9.81645 24.7304ZM10.8845 34.8259C10.6213 36.0816 10.6458 37.7254 10.9574 39.7566L12.6388 50.7133L12.6398 50.7132L10.9584 39.7565C10.6468 37.7258 10.6218 36.0824 10.8846 34.8268L10.8845 34.8259ZM25.1539 31.7539C25.2739 32.2116 25.3735 32.695 25.4516 33.204L27.7819 48.3895L27.7828 48.3894L25.4525 33.2039C25.3744 32.6948 25.2739 32.2117 25.1539 31.7539ZM25.1158 31.6145C25.0862 31.5068 25.0563 31.4004 25.0243 31.2956C25.0563 31.4004 25.0862 31.5068 25.1158 31.6145ZM14.4924 31.3537C13.1077 31.6289 12.11 32.2531 11.4985 33.2259C12.157 32.1785 13.2638 31.5355 14.8185 31.2967L14.4924 31.3537ZM24.9915 31.1909C24.9564 31.0796 24.9205 30.9698 24.8827 30.8618C24.9205 30.9698 24.9564 31.0796 24.9915 31.1909ZM24.8202 30.6926C24.7922 30.6169 24.7646 30.5416 24.7352 30.4675C24.7646 30.5416 24.7922 30.6169 24.8202 30.6926ZM24.6459 30.252C24.615 30.1794 24.5847 30.1071 24.5525 30.0362C24.5847 30.1071 24.615 30.1794 24.6459 30.252ZM24.4781 29.8796C24.4476 29.8159 24.4174 29.7526 24.3858 29.6903C24.4174 29.7526 24.4476 29.8159 24.4781 29.8796ZM15.337 31.2438C15.4305 31.2392 15.5224 31.2368 15.6128 31.2381C15.5224 31.2368 15.4305 31.2392 15.337 31.2438ZM24.2912 29.5121C24.2569 29.4483 24.2227 29.3849 24.1871 29.3226C24.2227 29.3849 24.2569 29.4483 24.2912 29.5121ZM24.0898 29.1587C24.0539 29.0992 24.0187 29.0396 23.9816 28.9816C24.0187 29.0396 24.0539 29.0992 24.0898 29.1587ZM23.8649 28.8069C23.8287 28.7537 23.7929 28.7006 23.7557 28.6488C23.7929 28.7006 23.8287 28.7537 23.8649 28.8069ZM23.6512 28.5087C23.6047 28.4472 23.5577 28.3865 23.5097 28.3269C23.5577 28.3865 23.6047 28.4472 23.6512 28.5087ZM9.08871 28.551L9.23061 30.4479L9.23158 30.4478L9.08886 28.552C9.00164 27.6933 8.92403 26.975 8.86003 26.3977C8.924 26.9749 9.00151 27.6925 9.08871 28.551ZM23.4053 28.2006C23.3588 28.1457 23.3117 28.0917 23.2639 28.0386C23.3117 28.0917 23.3589 28.1457 23.4053 28.2006ZM23.1278 27.8925C23.0857 27.8484 23.0433 27.8047 23.0001 27.7619C23.0433 27.8047 23.0857 27.8484 23.1278 27.8925ZM22.868 27.635C22.8201 27.5901 22.7722 27.5455 22.7231 27.5021C22.7722 27.5455 22.8201 27.5901 22.868 27.635ZM21.7304 26.7761C21.9469 26.9042 22.1551 27.045 22.3553 27.1979C22.4319 27.2564 22.5059 27.3181 22.5799 27.3798C22.5556 27.3596 22.5326 27.3377 22.5081 27.3177L22.3563 27.1978C22.1559 27.0447 21.9471 26.9043 21.7304 26.7761ZM21.4972 26.6469C21.4639 26.629 21.4315 26.6093 21.3978 26.592C21.4315 26.6093 21.4639 26.629 21.4972 26.6469ZM21.1953 26.4956C21.1458 26.4722 21.0966 26.4478 21.0463 26.4256C21.0966 26.4478 21.1458 26.4722 21.1953 26.4956ZM20.8364 26.3393C20.7891 26.3203 20.7422 26.3 20.6943 26.282C20.7422 26.3 20.7891 26.3203 20.8364 26.3393ZM20.4897 26.2107C20.4299 26.1904 20.3702 26.1693 20.3095 26.1504C20.3702 26.1693 20.4299 26.1904 20.4897 26.2107ZM20.1348 26.1001C20.0668 26.0809 19.9987 26.0612 19.9295 26.0437C19.9987 26.0612 20.0668 26.0809 20.1348 26.1001ZM19.7256 25.996C19.6643 25.9823 19.6028 25.9685 19.5407 25.9562C19.6028 25.9685 19.6643 25.9823 19.7256 25.996ZM19.3294 25.9185C19.2595 25.9065 19.1894 25.8939 19.1185 25.8836C19.1894 25.8939 19.2595 25.9065 19.3294 25.9185ZM18.9472 25.8615C18.8598 25.8506 18.7718 25.8404 18.6828 25.8319C18.7718 25.8404 18.8598 25.8506 18.9472 25.8615ZM18.5266 25.8184C18.4405 25.8117 18.3537 25.8055 18.2661 25.801C18.3537 25.8055 18.4405 25.8117 18.5266 25.8184ZM18.0524 25.7933C17.975 25.791 17.8971 25.7892 17.8186 25.7887C17.8971 25.7892 17.975 25.791 18.0524 25.7933ZM17.6113 25.7899C17.5237 25.7909 17.4354 25.7928 17.3464 25.7959C17.4354 25.7928 17.5237 25.7909 17.6113 25.7899ZM17.1688 25.8034C17.0697 25.8084 16.9699 25.8142 16.8692 25.8217C16.9699 25.8142 17.0697 25.8084 17.1688 25.8034ZM16.6887 25.8366C16.5887 25.8455 16.4879 25.8559 16.3862 25.8672C16.4879 25.8559 16.5887 25.8455 16.6887 25.8366ZM16.1902 25.8904C16.1417 25.8965 16.0925 25.9013 16.0437 25.9079L15.8601 25.9351C15.971 25.9186 16.0811 25.9041 16.1902 25.8904ZM8.67826 24.9041C8.69799 25.0327 8.72182 25.2053 8.74881 25.4219L8.67937 24.9049L7.66605 18.3016L7.66508 18.3017L8.67826 24.9041Z" fill="white"/>
<path d="M48.4989 41.6113C48.6428 40.8344 48.8154 39.7267 49.0168 38.288C49.247 36.8494 49.4484 35.2237 49.621 33.411C49.8225 31.5983 49.9663 29.7136 50.0526 27.7571C50.1677 25.7717 50.1821 23.8583 50.0958 22.0168C50.0383 20.1466 49.8656 18.4633 49.5779 16.9671C49.2902 15.4709 48.8298 14.2912 48.1968 13.428C47.5925 12.5361 46.8013 12.0901 45.823 12.0901C44.7584 12.0901 43.8664 12.5505 43.1471 13.4712C42.4278 14.3919 41.8379 15.6436 41.3775 17.2261C40.946 18.7798 40.6294 20.5494 40.428 22.5347C40.2266 24.5201 40.1115 26.5917 40.0828 28.7497C40.0828 30.8789 40.1403 32.9794 40.2554 35.051C40.3705 37.1227 40.5287 39.0073 40.7301 40.705L30.7171 41.6976C30.4006 36.8637 30.4294 32.4183 30.8034 28.3613C31.1775 24.2755 31.94 20.7364 33.0909 17.744C34.2706 14.7516 35.8963 12.4354 37.9679 10.7953C40.0396 9.15524 42.6148 8.33521 45.6935 8.33521C48.5421 8.33521 50.8727 9.16963 52.6854 10.8385C54.4981 12.4785 55.8504 14.7804 56.7424 17.744C57.6631 20.7076 58.1667 24.1604 58.253 28.1023C58.3681 32.0155 58.1091 36.2451 57.4761 40.7913L48.4989 41.6113ZM33.652 34.0152L35.292 28.9655C37.0472 29.5698 38.8167 29.987 40.6007 30.2172C42.3846 30.4186 44.1254 30.4905 45.823 30.433C47.5494 30.3754 49.1894 30.2603 50.7432 30.0877C52.2969 29.915 53.7212 29.728 55.016 29.5266L55.4476 32.8067C53.5486 33.5548 51.405 34.0728 49.0168 34.3605C46.6286 34.6482 44.1254 34.7489 41.507 34.6626C38.8887 34.5475 36.2703 34.3317 33.652 34.0152Z" fill="white"/>
<path d="M73.9379 1.76343C77.2763 2.90321 79.8033 5.66658 80.6411 9.09327L80.8277 9.85643L79.1507 10.2667L78.9642 9.50351C78.2664 6.64893 76.1613 4.3472 73.3804 3.39765L73.9379 1.76343Z" fill="white"/>
<path d="M80.0163 0.139611C82.8995 2.09437 84.6067 5.36792 84.5597 8.85096L84.5401 10.2998L82.8137 10.2761L82.8332 8.82783C82.8724 5.92539 81.4497 3.19786 79.0471 1.56896L80.0163 0.139611Z" fill="white"/>
</svg>
